<svg xmlns="http://www.w3.org/2000/svg" width="850" height="336" viewBox="0 0 850 336" role="img" font-family="'Arial Black',system-ui,-apple-system,'Segoe UI',Roboto,Helvetica,Arial,sans-serif"><defs><pattern id="dgb" width="19" height="19" patternUnits="userSpaceOnUse"><circle cx="1.6" cy="1.6" r="1.15" fill="#141109" opacity="0.05"/></pattern></defs><rect x="0.0" y="0.0" width="850.0" height="336.0" fill="#fdf6e6"/><rect x="0.0" y="0.0" width="850.0" height="336.0" fill="url(#dgb)"/><line x1="822.0" y1="11.0" x2="839.0" y2="11.0" stroke="#ff1f7a" stroke-width="3"/><line x1="839.0" y1="11.0" x2="839.0" y2="28.0" stroke="#ff1f7a" stroke-width="3"/><line x1="11.0" y1="325.0" x2="28.0" y2="325.0" stroke="#ff1f7a" stroke-width="3"/><line x1="11.0" y1="308.0" x2="11.0" y2="325.0" stroke="#ff1f7a" stroke-width="3"/><rect x="29.0" y="25.0" width="258.5" height="30.0" rx="3" fill="#141109"/><rect x="24.0" y="20.0" width="258.5" height="30.0" rx="3" fill="#1fbf5a" stroke="#141109" stroke-width="2.5"/><text x="37.0" y="40.2" fill="#141109" style="font-family:ui-monospace,'SF Mono','Cascadia Code','DejaVu Sans Mono',Menlo,Consolas,monospace;font-size:15px;font-weight:800;letter-spacing:0.5px">07 // VERIFIED BENCHMARKS</text><text x="24.0" y="72.0" fill="#5c574a" style="font-family:'Arial Black',system-ui,-apple-system,'Segoe UI',Roboto,Helvetica,Arial,sans-serif;font-size:12px;font-weight:600">every figure reproducible from the repo's own committed harness — no hand-waving</text><rect x="30.0" y="94.0" width="393.0" height="108.0" rx="3" fill="#141109"/><rect x="24.0" y="88.0" width="393.0" height="108.0" rx="3" fill="#ffffff" stroke="#141109" stroke-width="2.5"/><rect x="24.0" y="88.0" width="7.0" height="108.0" fill="#4d7cfe"/><line x1="31.0" y1="88.0" x2="31.0" y2="196.0" stroke="#141109" stroke-width="2.5"/><text x="46.0" y="114.0" fill="#141109" style="font-family:ui-monospace,'SF Mono','Cascadia Code','DejaVu Sans Mono',Menlo,Consolas,monospace;font-size:12px;font-weight:800">mcp-gateway-lite</text><rect x="248.2" y="101.0" width="154.8" height="19.0" rx="2" fill="#4d7cfe" stroke="#141109" stroke-width="1.5"/><text x="255.2" y="114.0" fill="#141109" style="font-family:ui-monospace,'SF Mono','Cascadia Code','DejaVu Sans Mono',Menlo,Consolas,monospace;font-size:9px;font-weight:800">REVERSE-PROXY OVERHEAD</text><text x="46.0" y="148.0" fill="#141109" style="font-family:ui-monospace,'SF Mono','Cascadia Code','DejaVu Sans Mono',Menlo,Consolas,monospace;font-size:27px;font-weight:800">+40 µs</text><rect x="46.0" y="160.0" width="349.0" height="9.0" rx="1" fill="#ffffff" stroke="#141109" stroke-width="2"/><rect x="46.0" y="160.0" width="139.6" height="9.0" fill="#4d7cfe"/><line x1="185.6" y1="160.0" x2="185.6" y2="169.0" stroke="#141109" stroke-width="2"/><text x="46.0" y="186.0" fill="#5c574a" style="font-family:'Arial Black',system-ui,-apple-system,'Segoe UI',Roboto,Helvetica,Arial,sans-serif;font-size:10.3px;font-weight:600">29.3µs direct → 69.9µs through gateway, per tools/call</text><rect x="439.0" y="94.0" width="393.0" height="108.0" rx="3" fill="#141109"/><rect x="433.0" y="88.0" width="393.0" height="108.0" rx="3" fill="#ffffff" stroke="#141109" stroke-width="2.5"/><rect x="433.0" y="88.0" width="7.0" height="108.0" fill="#b06bff"/><line x1="440.0" y1="88.0" x2="440.0" y2="196.0" stroke="#141109" stroke-width="2.5"/><text x="455.0" y="114.0" fill="#141109" style="font-family:ui-monospace,'SF Mono','Cascadia Code','DejaVu Sans Mono',Menlo,Consolas,monospace;font-size:12px;font-weight:800">toolcage</text><rect x="663.6" y="101.0" width="148.4" height="19.0" rx="2" fill="#b06bff" stroke="#141109" stroke-width="1.5"/><text x="670.6" y="114.0" fill="#141109" style="font-family:ui-monospace,'SF Mono','Cascadia Code','DejaVu Sans Mono',Menlo,Consolas,monospace;font-size:9px;font-weight:800">PER-CALL WASM SANDBOX</text><text x="455.0" y="148.0" fill="#141109" style="font-family:ui-monospace,'SF Mono','Cascadia Code','DejaVu Sans Mono',Menlo,Consolas,monospace;font-size:27px;font-weight:800">+0.33 ms</text><rect x="455.0" y="160.0" width="349.0" height="9.0" rx="1" fill="#ffffff" stroke="#141109" stroke-width="2"/><rect x="455.0" y="160.0" width="115.2" height="9.0" fill="#b06bff"/><line x1="570.2" y1="160.0" x2="570.2" y2="169.0" stroke="#141109" stroke-width="2"/><text x="455.0" y="186.0" fill="#5c574a" style="font-family:'Arial Black',system-ui,-apple-system,'Segoe UI',Roboto,Helvetica,Arial,sans-serif;font-size:10.3px;font-weight:600">0.415ms median sandboxed vs 0.089ms unsandboxed floor</text><rect x="30.0" y="218.0" width="393.0" height="108.0" rx="3" fill="#141109"/><rect x="24.0" y="212.0" width="393.0" height="108.0" rx="3" fill="#ffffff" stroke="#141109" stroke-width="2.5"/><rect x="24.0" y="212.0" width="7.0" height="108.0" fill="#8fd613"/><line x1="31.0" y1="212.0" x2="31.0" y2="320.0" stroke="#141109" stroke-width="2.5"/><text x="46.0" y="238.0" fill="#141109" style="font-family:ui-monospace,'SF Mono','Cascadia Code','DejaVu Sans Mono',Menlo,Consolas,monospace;font-size:12px;font-weight:800">localmodel-fit</text><rect x="235.4" y="225.0" width="167.6" height="19.0" rx="2" fill="#8fd613" stroke="#141109" stroke-width="1.5"/><text x="242.4" y="238.0" fill="#141109" style="font-family:ui-monospace,'SF Mono','Cascadia Code','DejaVu Sans Mono',Menlo,Consolas,monospace;font-size:9px;font-weight:800">PREFILL 1/PARAMS SCALING</text><text x="46.0" y="272.0" fill="#141109" style="font-family:ui-monospace,'SF Mono','Cascadia Code','DejaVu Sans Mono',Menlo,Consolas,monospace;font-size:27px;font-weight:800">~2% err</text><rect x="46.0" y="284.0" width="349.0" height="9.0" rx="1" fill="#ffffff" stroke="#141109" stroke-width="2"/><rect x="46.0" y="284.0" width="7.0" height="9.0" fill="#8fd613"/><line x1="53.0" y1="284.0" x2="53.0" y2="293.0" stroke="#141109" stroke-width="2"/><text x="46.0" y="310.0" fill="#5c574a" style="font-family:'Arial Black',system-ui,-apple-system,'Segoe UI',Roboto,Helvetica,Arial,sans-serif;font-size:10.3px;font-weight:600">measured 0.5b/1.5b ratio 3.06–3.18 vs exact 3.125</text><rect x="439.0" y="218.0" width="393.0" height="108.0" rx="3" fill="#141109"/><rect x="433.0" y="212.0" width="393.0" height="108.0" rx="3" fill="#ffffff" stroke="#141109" stroke-width="2.5"/><rect x="433.0" y="212.0" width="7.0" height="108.0" fill="#ff7a45"/><line x1="440.0" y1="212.0" x2="440.0" y2="320.0" stroke="#141109" stroke-width="2.5"/><text x="455.0" y="238.0" fill="#141109" style="font-family:ui-monospace,'SF Mono','Cascadia Code','DejaVu Sans Mono',Menlo,Consolas,monospace;font-size:12px;font-weight:800">ml-kem-rb</text><rect x="657.2" y="225.0" width="154.8" height="19.0" rx="2" fill="#ff7a45" stroke="#141109" stroke-width="1.5"/><text x="664.2" y="238.0" fill="#141109" style="font-family:ui-monospace,'SF Mono','Cascadia Code','DejaVu Sans Mono',Menlo,Consolas,monospace;font-size:9px;font-weight:800">HYBRID KEM (TLS DRAFT)</text><text x="455.0" y="272.0" fill="#141109" style="font-family:ui-monospace,'SF Mono','Cascadia Code','DejaVu Sans Mono',Menlo,Consolas,monospace;font-size:27px;font-weight:800">1216 / 1120 B</text><text x="455.0" y="310.0" fill="#5c574a" style="font-family:'Arial Black',system-ui,-apple-system,'Segoe UI',Roboto,Helvetica,Arial,sans-serif;font-size:10.3px;font-weight:600">X25519+ML-KEM-768 client/server shares · 64B secret</text></svg>