<svg xmlns="http://www.w3.org/2000/svg" width="850" height="246" viewBox="0 0 850 246" role="img" font-family="'Arial Black',system-ui,-apple-system,'Segoe UI',Roboto,Helvetica,Arial,sans-serif"><rect x="0.0" y="0.0" width="850.0" height="246.0" rx="0" fill="#fdf6e6"/><rect x="22.0" y="18.0" width="818.0" height="222.0" rx="4" fill="#141109"/><rect x="16.0" y="12.0" width="818.0" height="222.0" rx="4" fill="#ffffff" stroke="#141109" stroke-width="3"/><rect x="16.0" y="12.0" width="818.0" height="40.0" rx="0" fill="#ffcf33"/><line x1="16.0" y1="52.0" x2="834.0" y2="52.0" stroke="#141109" stroke-width="3" stroke-linecap="butt"/><rect x="34.0" y="25.0" width="14.0" height="14.0" rx="2" fill="#ffffff" stroke="#141109" stroke-width="2"/><rect x="56.0" y="25.0" width="14.0" height="14.0" rx="2" fill="#ffffff" stroke="#141109" stroke-width="2"/><rect x="78.0" y="25.0" width="14.0" height="14.0" rx="2" fill="#ffffff" stroke="#141109" stroke-width="2"/><text x="818.0" y="37.0" fill="#141109" text-anchor="end" style="font-family:ui-monospace,'SF Mono','Cascadia Code','DejaVu Sans Mono',Menlo,Consolas,monospace;font-size:13px;font-weight:800;letter-spacing:0.5px">PORTFOLIO // github.com/bharat3645</text><text x="39.0" y="103.0" fill="#ff5d8f" text-anchor="start" style="font-family:ui-monospace,'SF Mono','Cascadia Code','DejaVu Sans Mono',Menlo,Consolas,monospace;font-size:31px;font-weight:800;letter-spacing:1px">BHARAT SINGH PARIHAR</text><text x="36.0" y="100.0" fill="#141109" text-anchor="start" style="font-family:ui-monospace,'SF Mono','Cascadia Code','DejaVu Sans Mono',Menlo,Consolas,monospace;font-size:31px;font-weight:800;letter-spacing:1px">BHARAT SINGH PARIHAR</text><text x="36.0" y="130.0" fill="#141109" text-anchor="start" style="font-family:ui-monospace,'SF Mono','Cascadia Code','DejaVu Sans Mono',Menlo,Consolas,monospace;font-size:15px;font-weight:700">&gt; Agent-security &amp; AI-infrastructure engineer</text><rect x="441.9" y="118.0" width="10" height="15" fill="#ff5d8f"><animate attributeName="opacity" values="1;1;0;0" dur="1.05s" repeatCount="indefinite"/></rect><text x="36.0" y="150.0" fill="#5c574a" text-anchor="start" style="font-family:'Arial Black',system-ui,-apple-system,'Segoe UI',Roboto,Helvetica,Arial,sans-serif;font-size:12.5px;font-weight:600">I build small, verifiable tools for the parts of the AI stack that fail quietly.</text><rect x="40.0" y="184.0" width="145.2" height="48.0" rx="2" fill="#141109"/><rect x="36.0" y="180.0" width="145.2" height="48.0" rx="2" fill="#ffffff" stroke="#141109" stroke-width="2.5"/><rect x="36.0" y="180.0" width="7.0" height="48.0" rx="0" fill="#4d7cfe"/><line x1="43.0" y1="180.0" x2="43.0" y2="228.0" stroke="#141109" stroke-width="2.5" stroke-linecap="butt"/><text x="111.6" y="204.0" fill="#141109" text-anchor="middle" style="font-family:ui-monospace,'SF Mono','Cascadia Code','DejaVu Sans Mono',Menlo,Consolas,monospace;font-size:20px;font-weight:800">13</text><text x="111.6" y="219.0" fill="#5c574a" text-anchor="middle" style="font-family:ui-monospace,'SF Mono','Cascadia Code','DejaVu Sans Mono',Menlo,Consolas,monospace;font-size:8.5px;font-weight:700;letter-spacing:0.4px">FLAGSHIP REPOS</text><rect x="198.2" y="184.0" width="145.2" height="48.0" rx="2" fill="#141109"/><rect x="194.2" y="180.0" width="145.2" height="48.0" rx="2" fill="#ffffff" stroke="#141109" stroke-width="2.5"/><rect x="194.2" y="180.0" width="7.0" height="48.0" rx="0" fill="#1fbf5a"/><line x1="201.2" y1="180.0" x2="201.2" y2="228.0" stroke="#141109" stroke-width="2.5" stroke-linecap="butt"/><text x="269.8" y="204.0" fill="#141109" text-anchor="middle" style="font-family:ui-monospace,'SF Mono','Cascadia Code','DejaVu Sans Mono',Menlo,Consolas,monospace;font-size:20px;font-weight:800">10/11</text><text x="269.8" y="219.0" fill="#5c574a" text-anchor="middle" style="font-family:ui-monospace,'SF Mono','Cascadia Code','DejaVu Sans Mono',Menlo,Consolas,monospace;font-size:8.5px;font-weight:700;letter-spacing:0.4px">CI GREEN</text><rect x="356.4" y="184.0" width="145.2" height="48.0" rx="2" fill="#141109"/><rect x="352.4" y="180.0" width="145.2" height="48.0" rx="2" fill="#ffffff" stroke="#141109" stroke-width="2.5"/><rect x="352.4" y="180.0" width="7.0" height="48.0" rx="0" fill="#b06bff"/><line x1="359.4" y1="180.0" x2="359.4" y2="228.0" stroke="#141109" stroke-width="2.5" stroke-linecap="butt"/><text x="428.0" y="204.0" fill="#141109" text-anchor="middle" style="font-family:ui-monospace,'SF Mono','Cascadia Code','DejaVu Sans Mono',Menlo,Consolas,monospace;font-size:20px;font-weight:800">6</text><text x="428.0" y="219.0" fill="#5c574a" text-anchor="middle" style="font-family:ui-monospace,'SF Mono','Cascadia Code','DejaVu Sans Mono',Menlo,Consolas,monospace;font-size:8.5px;font-weight:700;letter-spacing:0.4px">LANGUAGES</text><rect x="514.6" y="184.0" width="145.2" height="48.0" rx="2" fill="#141109"/><rect x="510.6" y="180.0" width="145.2" height="48.0" rx="2" fill="#ffffff" stroke="#141109" stroke-width="2.5"/><rect x="510.6" y="180.0" width="7.0" height="48.0" rx="0" fill="#1fc7e0"/><line x1="517.6" y1="180.0" x2="517.6" y2="228.0" stroke="#141109" stroke-width="2.5" stroke-linecap="butt"/><text x="586.2" y="204.0" fill="#141109" text-anchor="middle" style="font-family:ui-monospace,'SF Mono','Cascadia Code','DejaVu Sans Mono',Menlo,Consolas,monospace;font-size:20px;font-weight:800">78</text><text x="586.2" y="219.0" fill="#5c574a" text-anchor="middle" style="font-family:ui-monospace,'SF Mono','Cascadia Code','DejaVu Sans Mono',Menlo,Consolas,monospace;font-size:8.5px;font-weight:700;letter-spacing:0.4px">PUBLIC REPOS</text><rect x="672.8" y="184.0" width="145.2" height="48.0" rx="2" fill="#141109"/><rect x="668.8" y="180.0" width="145.2" height="48.0" rx="2" fill="#ffffff" stroke="#141109" stroke-width="2.5"/><rect x="668.8" y="180.0" width="7.0" height="48.0" rx="0" fill="#ff7a45"/><line x1="675.8" y1="180.0" x2="675.8" y2="228.0" stroke="#141109" stroke-width="2.5" stroke-linecap="butt"/><text x="744.4" y="204.0" fill="#141109" text-anchor="middle" style="font-family:ui-monospace,'SF Mono','Cascadia Code','DejaVu Sans Mono',Menlo,Consolas,monospace;font-size:20px;font-weight:800">23</text><text x="744.4" y="219.0" fill="#5c574a" text-anchor="middle" style="font-family:ui-monospace,'SF Mono','Cascadia Code','DejaVu Sans Mono',Menlo,Consolas,monospace;font-size:8.5px;font-weight:700;letter-spacing:0.4px">FOLLOWERS</text></svg>