<svg xmlns="http://www.w3.org/2000/svg" width="850" height="158" viewBox="0 0 850 158" role="img" font-family="'Arial Black',system-ui,-apple-system,'Segoe UI',Roboto,Helvetica,Arial,sans-serif"><rect x="0.0" y="0.0" width="850.0" height="158.0" rx="0" fill="#0d1117"/><rect x="29.0" y="25.0" width="137.6" height="30.0" rx="3" fill="#f4efe1"/><rect x="24.0" y="20.0" width="137.6" height="30.0" rx="3" fill="#34e2ea" stroke="#f4efe1" stroke-width="2.5"/><text x="37.0" y="40.2" fill="#141109" text-anchor="start" style="font-family:ui-monospace,'SF Mono','Cascadia Code','DejaVu Sans Mono',Menlo,Consolas,monospace;font-size:15px;font-weight:800;letter-spacing:0.5px">LANGUAGE MIX</text><text x="24.0" y="72.0" fill="#a7a291" text-anchor="start" style="font-family:'Arial Black',system-ui,-apple-system,'Segoe UI',Roboto,Helvetica,Arial,sans-serif;font-size:12px;font-weight:600">by bytes across the public flagship repos · computed live from the GitHub API</text><rect x="28.0" y="88.0" width="802.0" height="26.0" rx="2" fill="#f4efe1"/><rect x="24.0" y="84" width="287.9" height="26" fill="#00ADD8"/><rect x="311.9" y="84" width="184.1" height="26" fill="#dea584"/><line x1="311.9" y1="84.0" x2="311.9" y2="110.0" stroke="#f4efe1" stroke-width="2" stroke-linecap="butt"/><rect x="496.0" y="84" width="128.6" height="26" fill="#701516"/><line x1="496.0" y1="84.0" x2="496.0" y2="110.0" stroke="#f4efe1" stroke-width="2" stroke-linecap="butt"/><rect x="624.6" y="84" width="97.5" height="26" fill="#3572A5"/><line x1="624.6" y1="84.0" x2="624.6" y2="110.0" stroke="#f4efe1" stroke-width="2" stroke-linecap="butt"/><rect x="722.1" y="84" width="82.4" height="26" fill="#f1e05a"/><line x1="722.1" y1="84.0" x2="722.1" y2="110.0" stroke="#f4efe1" stroke-width="2" stroke-linecap="butt"/><rect x="804.5" y="84" width="21.5" height="26" fill="#89e051"/><line x1="804.5" y1="84.0" x2="804.5" y2="110.0" stroke="#f4efe1" stroke-width="2" stroke-linecap="butt"/><rect x="24.0" y="84.0" width="802.0" height="26.0" rx="2" fill="none" stroke="#f4efe1" stroke-width="2.5"/><rect x="24.0" y="127.0" width="13.0" height="13.0" rx="2" fill="#00ADD8" stroke="#f4efe1" stroke-width="1.5"/><text x="43.0" y="138.0" fill="#f4efe1" text-anchor="start" style="font-family:ui-monospace,'SF Mono','Cascadia Code','DejaVu Sans Mono',Menlo,Consolas,monospace;font-size:12px;font-weight:700">Go 35.9%</text><rect x="124.0" y="127.0" width="13.0" height="13.0" rx="2" fill="#dea584" stroke="#f4efe1" stroke-width="1.5"/><text x="143.0" y="138.0" fill="#f4efe1" text-anchor="start" style="font-family:ui-monospace,'SF Mono','Cascadia Code','DejaVu Sans Mono',Menlo,Consolas,monospace;font-size:12px;font-weight:700">Rust 23.0%</text><rect x="239.0" y="127.0" width="13.0" height="13.0" rx="2" fill="#701516" stroke="#f4efe1" stroke-width="1.5"/><text x="258.0" y="138.0" fill="#f4efe1" text-anchor="start" style="font-family:ui-monospace,'SF Mono','Cascadia Code','DejaVu Sans Mono',Menlo,Consolas,monospace;font-size:12px;font-weight:700">Ruby 16.0%</text><rect x="354.0" y="127.0" width="13.0" height="13.0" rx="2" fill="#3572A5" stroke="#f4efe1" stroke-width="1.5"/><text x="373.0" y="138.0" fill="#f4efe1" text-anchor="start" style="font-family:ui-monospace,'SF Mono','Cascadia Code','DejaVu Sans Mono',Menlo,Consolas,monospace;font-size:12px;font-weight:700">Python 12.2%</text><rect x="484.0" y="127.0" width="13.0" height="13.0" rx="2" fill="#f1e05a" stroke="#f4efe1" stroke-width="1.5"/><text x="503.0" y="138.0" fill="#f4efe1" text-anchor="start" style="font-family:ui-monospace,'SF Mono','Cascadia Code','DejaVu Sans Mono',Menlo,Consolas,monospace;font-size:12px;font-weight:700">JavaScript 10.3%</text><rect x="644.0" y="127.0" width="13.0" height="13.0" rx="2" fill="#89e051" stroke="#f4efe1" stroke-width="1.5"/><text x="663.0" y="138.0" fill="#f4efe1" text-anchor="start" style="font-family:ui-monospace,'SF Mono','Cascadia Code','DejaVu Sans Mono',Menlo,Consolas,monospace;font-size:12px;font-weight:700">Shell 2.7%</text></svg>