<svg xmlns="http://www.w3.org/2000/svg" width="850" height="158" viewBox="0 0 850 158" role="img" font-family="'Arial Black',system-ui,-apple-system,'Segoe UI',Roboto,Helvetica,Arial,sans-serif"><defs><pattern id="dgl" width="19" height="19" patternUnits="userSpaceOnUse"><circle cx="1.6" cy="1.6" r="1.15" fill="#f4efe1" opacity="0.05"/></pattern><radialGradient id="swl" cx="0.5" cy="0.5" r="0.5"><stop offset="0" stop-color="#ff2e88" stop-opacity="0.34"/><stop offset="1" stop-color="#ff2e88" stop-opacity="0"/></radialGradient></defs><rect x="0.0" y="0.0" width="850.0" height="158.0" rx="0" fill="#0d1117"/><rect x="0.0" y="0.0" width="850.0" height="158.0" rx="0" fill="url(#dgl)"/><line x1="822.0" y1="11.0" x2="839.0" y2="11.0" stroke="#ff2e88" stroke-width="3" stroke-linecap="butt"/><line x1="839.0" y1="11.0" x2="839.0" y2="28.0" stroke="#ff2e88" stroke-width="3" stroke-linecap="butt"/><line x1="11.0" y1="147.0" x2="28.0" y2="147.0" stroke="#ff2e88" stroke-width="3" stroke-linecap="butt"/><line x1="11.0" y1="130.0" x2="11.0" y2="147.0" stroke="#ff2e88" stroke-width="3" stroke-linecap="butt"/><rect x="29.0" y="25.0" width="193.4" height="30.0" rx="3" fill="#f4efe1"/><rect x="24.0" y="20.0" width="193.4" height="30.0" rx="3" fill="#34e2ea" stroke="#f4efe1" stroke-width="2.5"/><text x="37.0" y="40.2" fill="#141109" text-anchor="start" style="font-family:ui-monospace,'SF Mono','Cascadia Code','DejaVu Sans Mono',Menlo,Consolas,monospace;font-size:15px;font-weight:800;letter-spacing:0.5px">08 // LANGUAGE MIX</text><text x="24.0" y="72.0" fill="#b3ae9d" text-anchor="start" style="font-family:'Arial Black',system-ui,-apple-system,'Segoe UI',Roboto,Helvetica,Arial,sans-serif;font-size:12px;font-weight:600">by bytes across the public flagship repos · computed live from the GitHub API</text><circle cx="784.0" cy="33.0" r="4" fill="#ff2e88"><animate attributeName="opacity" values="1;0.25;1" dur="1.6s" repeatCount="indefinite"/></circle><text x="794.0" y="36.0" fill="#b3ae9d" text-anchor="start" style="font-family:ui-monospace,'SF Mono','Cascadia Code','DejaVu Sans Mono',Menlo,Consolas,monospace;font-size:10.5px;font-weight:800;letter-spacing:1px">LIVE</text><rect x="28.0" y="88.0" width="802.0" height="26.0" rx="2" fill="#f4efe1"/><rect x="24.0" y="84" width="287.9" height="26" fill="#00ADD8"/><rect x="311.9" y="84" width="184.1" height="26" fill="#dea584"/><line x1="311.9" y1="84.0" x2="311.9" y2="110.0" stroke="#f4efe1" stroke-width="2" stroke-linecap="butt"/><rect x="496.0" y="84" width="128.6" height="26" fill="#701516"/><line x1="496.0" y1="84.0" x2="496.0" y2="110.0" stroke="#f4efe1" stroke-width="2" stroke-linecap="butt"/><rect x="624.6" y="84" width="97.5" height="26" fill="#3572A5"/><line x1="624.6" y1="84.0" x2="624.6" y2="110.0" stroke="#f4efe1" stroke-width="2" stroke-linecap="butt"/><rect x="722.1" y="84" width="82.4" height="26" fill="#f1e05a"/><line x1="722.1" y1="84.0" x2="722.1" y2="110.0" stroke="#f4efe1" stroke-width="2" stroke-linecap="butt"/><rect x="804.5" y="84" width="21.5" height="26" fill="#89e051"/><line x1="804.5" y1="84.0" x2="804.5" y2="110.0" stroke="#f4efe1" stroke-width="2" stroke-linecap="butt"/><rect x="24.0" y="84.0" width="802.0" height="26.0" rx="2" fill="none" stroke="#f4efe1" stroke-width="2.5"/><rect x="24.0" y="127.0" width="13.0" height="13.0" rx="2" fill="#00ADD8" stroke="#f4efe1" stroke-width="1.5"/><text x="43.0" y="138.0" fill="#f4efe1" text-anchor="start" style="font-family:ui-monospace,'SF Mono','Cascadia Code','DejaVu Sans Mono',Menlo,Consolas,monospace;font-size:12px;font-weight:700">Go 35.9%</text><rect x="124.0" y="127.0" width="13.0" height="13.0" rx="2" fill="#dea584" stroke="#f4efe1" stroke-width="1.5"/><text x="143.0" y="138.0" fill="#f4efe1" text-anchor="start" style="font-family:ui-monospace,'SF Mono','Cascadia Code','DejaVu Sans Mono',Menlo,Consolas,monospace;font-size:12px;font-weight:700">Rust 23.0%</text><rect x="239.0" y="127.0" width="13.0" height="13.0" rx="2" fill="#701516" stroke="#f4efe1" stroke-width="1.5"/><text x="258.0" y="138.0" fill="#f4efe1" text-anchor="start" style="font-family:ui-monospace,'SF Mono','Cascadia Code','DejaVu Sans Mono',Menlo,Consolas,monospace;font-size:12px;font-weight:700">Ruby 16.0%</text><rect x="354.0" y="127.0" width="13.0" height="13.0" rx="2" fill="#3572A5" stroke="#f4efe1" stroke-width="1.5"/><text x="373.0" y="138.0" fill="#f4efe1" text-anchor="start" style="font-family:ui-monospace,'SF Mono','Cascadia Code','DejaVu Sans Mono',Menlo,Consolas,monospace;font-size:12px;font-weight:700">Python 12.2%</text><rect x="484.0" y="127.0" width="13.0" height="13.0" rx="2" fill="#f1e05a" stroke="#f4efe1" stroke-width="1.5"/><text x="503.0" y="138.0" fill="#f4efe1" text-anchor="start" style="font-family:ui-monospace,'SF Mono','Cascadia Code','DejaVu Sans Mono',Menlo,Consolas,monospace;font-size:12px;font-weight:700">JavaScript 10.3%</text><rect x="644.0" y="127.0" width="13.0" height="13.0" rx="2" fill="#89e051" stroke="#f4efe1" stroke-width="1.5"/><text x="663.0" y="138.0" fill="#f4efe1" text-anchor="start" style="font-family:ui-monospace,'SF Mono','Cascadia Code','DejaVu Sans Mono',Menlo,Consolas,monospace;font-size:12px;font-weight:700">Shell 2.7%</text></svg>