<svg xmlns="http://www.w3.org/2000/svg" width="850" height="462" viewBox="0 0 850 462" role="img" font-family="'Arial Black',system-ui,-apple-system,'Segoe UI',Roboto,Helvetica,Arial,sans-serif"><defs><pattern id="dgn" width="19" height="19" patternUnits="userSpaceOnUse"><circle cx="1.6" cy="1.6" r="1.15" fill="#f4efe1" opacity="0.05"/></pattern><radialGradient id="swn" cx="0.5" cy="0.5" r="0.5"><stop offset="0" stop-color="#ff2e88" stop-opacity="0.34"/><stop offset="1" stop-color="#ff2e88" stop-opacity="0"/></radialGradient></defs><rect x="0.0" y="0.0" width="850.0" height="462.0" rx="0" fill="#0d1117"/><rect x="0.0" y="0.0" width="850.0" height="462.0" rx="0" fill="url(#dgn)"/><line x1="822.0" y1="11.0" x2="839.0" y2="11.0" stroke="#ff2e88" stroke-width="3" stroke-linecap="butt"/><line x1="839.0" y1="11.0" x2="839.0" y2="28.0" stroke="#ff2e88" stroke-width="3" stroke-linecap="butt"/><line x1="11.0" y1="451.0" x2="28.0" y2="451.0" stroke="#ff2e88" stroke-width="3" stroke-linecap="butt"/><line x1="11.0" y1="434.0" x2="11.0" y2="451.0" stroke="#ff2e88" stroke-width="3" stroke-linecap="butt"/><rect x="29.0" y="25.0" width="295.7" height="30.0" rx="3" fill="#f4efe1"/><rect x="24.0" y="20.0" width="295.7" height="30.0" rx="3" fill="#34e2ea" stroke="#f4efe1" stroke-width="2.5"/><text x="37.0" y="40.2" fill="#141109" text-anchor="start" style="font-family:ui-monospace,'SF Mono','Cascadia Code','DejaVu Sans Mono',Menlo,Consolas,monospace;font-size:15px;font-weight:800;letter-spacing:0.5px">10 // PORTFOLIO CONSTELLATION</text><text x="24.0" y="72.0" fill="#b3ae9d" text-anchor="start" style="font-family:'Arial Black',system-ui,-apple-system,'Segoe UI',Roboto,Helvetica,Arial,sans-serif;font-size:12px;font-weight:600">the flagships as a network — node size = commits · edges = shared MCP + verified links</text><circle cx="784.0" cy="33.0" r="4" fill="#ff2e88"><animate attributeName="opacity" values="1;0.25;1" dur="1.6s" repeatCount="indefinite"/></circle><text x="794.0" y="36.0" fill="#b3ae9d" text-anchor="start" style="font-family:ui-monospace,'SF Mono','Cascadia Code','DejaVu Sans Mono',Menlo,Consolas,monospace;font-size:10.5px;font-weight:800;letter-spacing:1px">LIVE</text><text x="150.0" y="104.0" fill="#ff6b6b" text-anchor="middle" style="font-family:ui-monospace,'SF Mono','Cascadia Code','DejaVu Sans Mono',Menlo,Consolas,monospace;font-size:10px;font-weight:800;letter-spacing:0.5px">AGENT SECURITY</text><text x="612.0" y="104.0" fill="#6aa3ff" text-anchor="middle" style="font-family:ui-monospace,'SF Mono','Cascadia Code','DejaVu Sans Mono',Menlo,Consolas,monospace;font-size:10px;font-weight:800;letter-spacing:0.5px">AI INFRA</text><text x="250.0" y="424.0" fill="#c9a2ff" text-anchor="middle" style="font-family:ui-monospace,'SF Mono','Cascadia Code','DejaVu Sans Mono',Menlo,Consolas,monospace;font-size:10px;font-weight:800;letter-spacing:0.5px">POST-QUANTUM</text><text x="615.0" y="424.0" fill="#5ee08a" text-anchor="middle" style="font-family:ui-monospace,'SF Mono','Cascadia Code','DejaVu Sans Mono',Menlo,Consolas,monospace;font-size:10px;font-weight:800;letter-spacing:0.5px">BACKEND</text><text x="772.0" y="300.0" fill="#ffd23f" text-anchor="middle" style="font-family:ui-monospace,'SF Mono','Cascadia Code','DejaVu Sans Mono',Menlo,Consolas,monospace;font-size:10px;font-weight:800;letter-spacing:0.5px">SUPPLY</text><line x1="410.0" y1="250.0" x2="138.0" y2="150.0" stroke="#2b2b33" stroke-width="1.8" stroke-linecap="butt"/><line x1="410.0" y1="250.0" x2="138.0" y2="232.0" stroke="#2b2b33" stroke-width="1.8" stroke-linecap="butt"/><line x1="410.0" y1="250.0" x2="232.0" y2="138.0" stroke="#2b2b33" stroke-width="1.8" stroke-linecap="butt"/><line x1="410.0" y1="250.0" x2="568.0" y2="150.0" stroke="#2b2b33" stroke-width="1.8" stroke-linecap="butt"/><line x1="410.0" y1="250.0" x2="664.0" y2="366.0" stroke="#2b2b33" stroke-width="1.8" stroke-linecap="butt"/><line x1="568.0" y1="150.0" x2="138.0" y2="232.0" stroke="#ff2e88" stroke-width="2.4" stroke-linecap="butt"/><text x="353.0" y="186.0" fill="#ff2e88" text-anchor="middle" style="font-family:ui-monospace,'SF Mono','Cascadia Code','DejaVu Sans Mono',Menlo,Consolas,monospace;font-size:8px;font-weight:800">CI verifies</text><line x1="250.0" y1="372.0" x2="352.0" y2="388.0" stroke="#c9a2ff" stroke-width="2.4" stroke-linecap="butt"/><text x="301.0" y="375.0" fill="#c9a2ff" text-anchor="middle" style="font-family:ui-monospace,'SF Mono','Cascadia Code','DejaVu Sans Mono',Menlo,Consolas,monospace;font-size:8px;font-weight:800">ML-KEM</text><line x1="668.0" y1="148.0" x2="568.0" y2="150.0" stroke="#6aa3ff" stroke-width="2.4" stroke-linecap="butt" stroke-dasharray="4 3"/><text x="618.0" y="144.0" fill="#6aa3ff" text-anchor="middle" style="font-family:ui-monospace,'SF Mono','Cascadia Code','DejaVu Sans Mono',Menlo,Consolas,monospace;font-size:8px;font-weight:800">mirrors</text><circle cx="410.0" cy="250.0" r="21.0" fill="#191921" stroke="#f4efe1" stroke-width="2.5"/><text x="410.0" y="249.0" fill="#f4efe1" text-anchor="middle" style="font-family:ui-monospace,'SF Mono','Cascadia Code','DejaVu Sans Mono',Menlo,Consolas,monospace;font-size:12px;font-weight:800">MCP</text><text x="410.0" y="262.0" fill="#b3ae9d" text-anchor="middle" style="font-family:ui-monospace,'SF Mono','Cascadia Code','DejaVu Sans Mono',Menlo,Consolas,monospace;font-size:8px;font-weight:700">hub</text><circle cx="141.0" cy="153.0" r="22.3" fill="#f4efe1"/><circle cx="138.0" cy="150.0" r="22.3" fill="#ff6b6b" stroke="#f4efe1" stroke-width="2.5"/><rect x="84.0" y="176.3" width="112.0" height="15.0" rx="2" fill="#f4efe1"/><rect x="82.0" y="174.3" width="112.0" height="15.0" rx="2" fill="#191921" stroke="#f4efe1" stroke-width="1.3"/><text x="138.0" y="185.3" fill="#f4efe1" text-anchor="middle" style="font-family:ui-monospace,'SF Mono','Cascadia Code','DejaVu Sans Mono',Menlo,Consolas,monospace;font-size:8.5px;font-weight:700">agent-rules-audit</text><circle cx="141.0" cy="235.0" r="18.6" fill="#f4efe1"/><circle cx="138.0" cy="232.0" r="18.6" fill="#ff6b6b" stroke="#f4efe1" stroke-width="2.5"/><rect x="99.0" y="254.6" width="82.0" height="15.0" rx="2" fill="#f4efe1"/><rect x="97.0" y="252.6" width="82.0" height="15.0" rx="2" fill="#191921" stroke="#f4efe1" stroke-width="1.3"/><text x="138.0" y="263.6" fill="#f4efe1" text-anchor="middle" style="font-family:ui-monospace,'SF Mono','Cascadia Code','DejaVu Sans Mono',Menlo,Consolas,monospace;font-size:8.5px;font-weight:700">mcp-sentinel</text><circle cx="235.0" cy="141.0" r="23.5" fill="#f4efe1"/><circle cx="232.0" cy="138.0" r="23.5" fill="#ff6b6b" stroke="#f4efe1" stroke-width="2.5"/><text x="232.0" y="142.0" fill="#141109" text-anchor="middle" style="font-family:ui-monospace,'SF Mono','Cascadia Code','DejaVu Sans Mono',Menlo,Consolas,monospace;font-size:8.5px;font-weight:800">0.1.0</text><rect x="205.0" y="165.5" width="58.0" height="15.0" rx="2" fill="#f4efe1"/><rect x="203.0" y="163.5" width="58.0" height="15.0" rx="2" fill="#191921" stroke="#f4efe1" stroke-width="1.3"/><text x="232.0" y="174.5" fill="#f4efe1" text-anchor="middle" style="font-family:ui-monospace,'SF Mono','Cascadia Code','DejaVu Sans Mono',Menlo,Consolas,monospace;font-size:8.5px;font-weight:700">toolcage</text><circle cx="253.0" cy="227.0" r="21.0" fill="#f4efe1"/><circle cx="250.0" cy="224.0" r="21.0" fill="#ff6b6b" stroke="#f4efe1" stroke-width="2.5"/><text x="250.0" y="228.0" fill="#141109" text-anchor="middle" style="font-family:ui-monospace,'SF Mono','Cascadia Code','DejaVu Sans Mono',Menlo,Consolas,monospace;font-size:8.5px;font-weight:800">0.1.0</text><rect x="202.0" y="249.0" width="100.0" height="15.0" rx="2" fill="#f4efe1"/><rect x="200.0" y="247.0" width="100.0" height="15.0" rx="2" fill="#191921" stroke="#f4efe1" stroke-width="1.3"/><text x="250.0" y="258.0" fill="#f4efe1" text-anchor="middle" style="font-family:ui-monospace,'SF Mono','Cascadia Code','DejaVu Sans Mono',Menlo,Consolas,monospace;font-size:8.5px;font-weight:700">agent-flightbox</text><circle cx="571.0" cy="153.0" r="26.0" fill="#f4efe1"/><circle cx="568.0" cy="150.0" r="26.0" fill="#6aa3ff" stroke="#f4efe1" stroke-width="2.5"/><text x="568.0" y="154.0" fill="#141109" text-anchor="middle" style="font-family:ui-monospace,'SF Mono','Cascadia Code','DejaVu Sans Mono',Menlo,Consolas,monospace;font-size:8.5px;font-weight:800">0.4.0</text><rect x="517.0" y="180.0" width="106.0" height="15.0" rx="2" fill="#f4efe1"/><rect x="515.0" y="178.0" width="106.0" height="15.0" rx="2" fill="#191921" stroke="#f4efe1" stroke-width="1.3"/><text x="568.0" y="189.0" fill="#f4efe1" text-anchor="middle" style="font-family:ui-monospace,'SF Mono','Cascadia Code','DejaVu Sans Mono',Menlo,Consolas,monospace;font-size:8.5px;font-weight:700">mcp-gateway-lite</text><circle cx="671.0" cy="151.0" r="14.9" fill="#f4efe1"/><circle cx="668.0" cy="148.0" r="14.9" fill="#6aa3ff" stroke="#f4efe1" stroke-width="2.5"/><rect x="638.0" y="166.9" width="64.0" height="15.0" rx="2" fill="#f4efe1"/><rect x="636.0" y="164.9" width="64.0" height="15.0" rx="2" fill="#191921" stroke="#f4efe1" stroke-width="1.3"/><text x="668.0" y="175.9" fill="#f4efe1" text-anchor="middle" style="font-family:ui-monospace,'SF Mono','Cascadia Code','DejaVu Sans Mono',Menlo,Consolas,monospace;font-size:8.5px;font-weight:700">modelgate</text><circle cx="569.0" cy="235.0" r="17.3" fill="#f4efe1"/><circle cx="566.0" cy="232.0" r="17.3" fill="#6aa3ff" stroke="#f4efe1" stroke-width="2.5"/><text x="566.0" y="236.0" fill="#141109" text-anchor="middle" style="font-family:ui-monospace,'SF Mono','Cascadia Code','DejaVu Sans Mono',Menlo,Consolas,monospace;font-size:8.5px;font-weight:800">0.1.0</text><rect x="521.0" y="253.3" width="94.0" height="15.0" rx="2" fill="#f4efe1"/><rect x="519.0" y="251.3" width="94.0" height="15.0" rx="2" fill="#191921" stroke="#f4efe1" stroke-width="1.3"/><text x="566.0" y="262.3" fill="#f4efe1" text-anchor="middle" style="font-family:ui-monospace,'SF Mono','Cascadia Code','DejaVu Sans Mono',Menlo,Consolas,monospace;font-size:8.5px;font-weight:700">localmodel-fit</text><circle cx="671.0" cy="235.0" r="18.0" fill="#f4efe1"/><circle cx="668.0" cy="232.0" r="18.0" fill="#6aa3ff" stroke="#f4efe1" stroke-width="2.5"/><rect x="635.0" y="254.0" width="70.0" height="15.0" rx="2" fill="#f4efe1"/><rect x="633.0" y="252.0" width="70.0" height="15.0" rx="2" fill="#191921" stroke="#f4efe1" stroke-width="1.3"/><text x="668.0" y="263.0" fill="#f4efe1" text-anchor="middle" style="font-family:ui-monospace,'SF Mono','Cascadia Code','DejaVu Sans Mono',Menlo,Consolas,monospace;font-size:8.5px;font-weight:700">trace2eval</text><circle cx="253.0" cy="375.0" r="18.6" fill="#f4efe1"/><circle cx="250.0" cy="372.0" r="18.6" fill="#c9a2ff" stroke="#f4efe1" stroke-width="2.5"/><rect x="220.0" y="394.6" width="64.0" height="15.0" rx="2" fill="#f4efe1"/><rect x="218.0" y="392.6" width="64.0" height="15.0" rx="2" fill="#191921" stroke="#f4efe1" stroke-width="1.3"/><text x="250.0" y="403.6" fill="#f4efe1" text-anchor="middle" style="font-family:ui-monospace,'SF Mono','Cascadia Code','DejaVu Sans Mono',Menlo,Consolas,monospace;font-size:8.5px;font-weight:700">ml-kem-rb</text><circle cx="355.0" cy="391.0" r="13.0" fill="#f4efe1"/><circle cx="352.0" cy="388.0" r="13.0" fill="#c9a2ff" stroke="#f4efe1" stroke-width="2.5"/><rect x="325.0" y="405.0" width="58.0" height="15.0" rx="2" fill="#f4efe1"/><rect x="323.0" y="403.0" width="58.0" height="15.0" rx="2" fill="#191921" stroke="#f4efe1" stroke-width="1.3"/><text x="352.0" y="414.0" fill="#f4efe1" text-anchor="middle" style="font-family:ui-monospace,'SF Mono','Cascadia Code','DejaVu Sans Mono',Menlo,Consolas,monospace;font-size:8.5px;font-weight:700">pqc-scan</text><circle cx="569.0" cy="375.0" r="16.1" fill="#f4efe1"/><circle cx="566.0" cy="372.0" r="16.1" fill="#5ee08a" stroke="#f4efe1" stroke-width="2.5"/><text x="566.0" y="376.0" fill="#141109" text-anchor="middle" style="font-family:ui-monospace,'SF Mono','Cascadia Code','DejaVu Sans Mono',Menlo,Consolas,monospace;font-size:8.5px;font-weight:800">0.1.0</text><rect x="518.0" y="392.1" width="100.0" height="15.0" rx="2" fill="#f4efe1"/><rect x="516.0" y="390.1" width="100.0" height="15.0" rx="2" fill="#191921" stroke="#f4efe1" stroke-width="1.3"/><text x="566.0" y="401.1" fill="#f4efe1" text-anchor="middle" style="font-family:ui-monospace,'SF Mono','Cascadia Code','DejaVu Sans Mono',Menlo,Consolas,monospace;font-size:8.5px;font-weight:700">idempotent-rack</text><circle cx="667.0" cy="369.0" r="15.5" fill="#f4efe1"/><circle cx="664.0" cy="366.0" r="15.5" fill="#5ee08a" stroke="#f4efe1" stroke-width="2.5"/><rect x="628.0" y="385.5" width="76.0" height="15.0" rx="2" fill="#f4efe1"/><rect x="626.0" y="383.5" width="76.0" height="15.0" rx="2" fill="#191921" stroke="#f4efe1" stroke-width="1.3"/><text x="664.0" y="394.5" fill="#f4efe1" text-anchor="middle" style="font-family:ui-monospace,'SF Mono','Cascadia Code','DejaVu Sans Mono',Menlo,Consolas,monospace;font-size:8.5px;font-weight:700">acts-as-mcp</text><circle cx="775.0" cy="253.0" r="19.2" fill="#f4efe1"/><circle cx="772.0" cy="250.0" r="19.2" fill="#ffd23f" stroke="#f4efe1" stroke-width="2.5"/><rect x="715.0" y="273.2" width="118.0" height="15.0" rx="2" fill="#f4efe1"/><rect x="713.0" y="271.2" width="118.0" height="15.0" rx="2" fill="#191921" stroke="#f4efe1" stroke-width="1.3"/><text x="772.0" y="282.2" fill="#f4efe1" text-anchor="middle" style="font-family:ui-monospace,'SF Mono','Cascadia Code','DejaVu Sans Mono',Menlo,Consolas,monospace;font-size:8.5px;font-weight:700">gemfile-lock-audit</text></svg>