<svg xmlns="http://www.w3.org/2000/svg" width="850" height="360" viewBox="0 0 850 360" role="img" font-family="'Arial Black',system-ui,-apple-system,'Segoe UI',Roboto,Helvetica,Arial,sans-serif"><defs><pattern id="dgp" width="19" height="19" patternUnits="userSpaceOnUse"><circle cx="1.6" cy="1.6" r="1.15" fill="#141109" opacity="0.05"/></pattern></defs><rect x="0.0" y="0.0" width="850.0" height="360.0" fill="#fdf6e6"/><rect x="0.0" y="0.0" width="850.0" height="360.0" fill="url(#dgp)"/><line x1="822.0" y1="11.0" x2="839.0" y2="11.0" stroke="#ff1f7a" stroke-width="3"/><line x1="839.0" y1="11.0" x2="839.0" y2="28.0" stroke="#ff1f7a" stroke-width="3"/><line x1="11.0" y1="349.0" x2="28.0" y2="349.0" stroke="#ff1f7a" stroke-width="3"/><line x1="11.0" y1="332.0" x2="11.0" y2="349.0" stroke="#ff1f7a" stroke-width="3"/><rect x="29.0" y="25.0" width="212.0" height="30.0" rx="3" fill="#141109"/><rect x="24.0" y="20.0" width="212.0" height="30.0" rx="3" fill="#ff7a45" stroke="#141109" stroke-width="2.5"/><text x="37.0" y="40.2" fill="#141109" style="font-family:ui-monospace,'SF Mono','Cascadia Code','DejaVu Sans Mono',Menlo,Consolas,monospace;font-size:15px;font-weight:800;letter-spacing:0.5px">04 // ACTIVITY PULSE</text><text x="24.0" y="72.0" fill="#5c574a" style="font-family:'Arial Black',system-ui,-apple-system,'Segoe UI',Roboto,Helvetica,Arial,sans-serif;font-size:12px;font-weight:600">commits per flagship over the last 14 days — brighter = busier · live from the API</text><circle cx="784.0" cy="33.0" r="4" fill="#ff1f7a"><animate attributeName="opacity" values="1;0.25;1" dur="1.6s" repeatCount="indefinite"/></circle><text x="794.0" y="36.0" fill="#5c574a" style="font-family:ui-monospace,'SF Mono','Cascadia Code','DejaVu Sans Mono',Menlo,Consolas,monospace;font-size:10.5px;font-weight:800;letter-spacing:1px">LIVE</text><rect x="28.0" y="86.0" width="105.2" height="24.0" rx="3" fill="#141109"/><rect x="24.0" y="82.0" width="105.2" height="24.0" rx="3" fill="#ffffff" stroke="#141109" stroke-width="2"/><text x="37.0" y="98.0" fill="#ff7a45" style="font-family:ui-monospace,'SF Mono','Cascadia Code','DejaVu Sans Mono',Menlo,Consolas,monospace;font-size:12px;font-weight:800">132</text><text x="67.0" y="98.0" fill="#5c574a" style="font-family:ui-monospace,'SF Mono','Cascadia Code','DejaVu Sans Mono',Menlo,Consolas,monospace;font-size:10px;font-weight:700">COMMITS</text><rect x="145.2" y="86.0" width="119.6" height="24.0" rx="3" fill="#141109"/><rect x="141.2" y="82.0" width="119.6" height="24.0" rx="3" fill="#ffffff" stroke="#141109" stroke-width="2"/><text x="154.2" y="98.0" fill="#1fc7e0" style="font-family:ui-monospace,'SF Mono','Cascadia Code','DejaVu Sans Mono',Menlo,Consolas,monospace;font-size:12px;font-weight:800">8</text><text x="168.2" y="98.0" fill="#5c574a" style="font-family:ui-monospace,'SF Mono','Cascadia Code','DejaVu Sans Mono',Menlo,Consolas,monospace;font-size:10px;font-weight:700">ACTIVE DAYS</text><rect x="276.8" y="86.0" width="126.8" height="24.0" rx="3" fill="#141109"/><rect x="272.8" y="82.0" width="126.8" height="24.0" rx="3" fill="#ffffff" stroke="#141109" stroke-width="2"/><text x="285.8" y="98.0" fill="#ff1f7a" style="font-family:ui-monospace,'SF Mono','Cascadia Code','DejaVu Sans Mono',Menlo,Consolas,monospace;font-size:12px;font-weight:800">34</text><text x="307.8" y="98.0" fill="#5c574a" style="font-family:ui-monospace,'SF Mono','Cascadia Code','DejaVu Sans Mono',Menlo,Consolas,monospace;font-size:10px;font-weight:700">BUSIEST DAY</text><circle cx="30.0" cy="131.0" r="3.6" fill="#00ADD8" stroke="#141109" stroke-width="1.2"/><text x="40.0" y="135.0" fill="#141109" style="font-family:ui-monospace,'SF Mono','Cascadia Code','DejaVu Sans Mono',Menlo,Consolas,monospace;font-size:10.5px;font-weight:700">mcp-gateway-lite</text><text x="824.0" y="135.0" fill="#141109" text-anchor="end" style="font-family:ui-monospace,'SF Mono','Cascadia Code','DejaVu Sans Mono',Menlo,Consolas,monospace;font-size:10.5px;font-weight:800">23</text><circle cx="30.0" cy="147.0" r="3.6" fill="#f1e05a" stroke="#141109" stroke-width="1.2"/><text x="40.0" y="151.0" fill="#141109" style="font-family:ui-monospace,'SF Mono','Cascadia Code','DejaVu Sans Mono',Menlo,Consolas,monospace;font-size:10.5px;font-weight:700">agent-rules-audit</text><text x="824.0" y="151.0" fill="#141109" text-anchor="end" style="font-family:ui-monospace,'SF Mono','Cascadia Code','DejaVu Sans Mono',Menlo,Consolas,monospace;font-size:10.5px;font-weight:800">17</text><circle cx="30.0" cy="163.0" r="3.6" fill="#dea584" stroke="#141109" stroke-width="1.2"/><text x="40.0" y="167.0" fill="#141109" style="font-family:ui-monospace,'SF Mono','Cascadia Code','DejaVu Sans Mono',Menlo,Consolas,monospace;font-size:10.5px;font-weight:700">toolcage</text><text x="824.0" y="167.0" fill="#141109" text-anchor="end" style="font-family:ui-monospace,'SF Mono','Cascadia Code','DejaVu Sans Mono',Menlo,Consolas,monospace;font-size:10.5px;font-weight:800">17</text><circle cx="30.0" cy="179.0" r="3.6" fill="#00ADD8" stroke="#141109" stroke-width="1.2"/><text x="40.0" y="183.0" fill="#141109" style="font-family:ui-monospace,'SF Mono','Cascadia Code','DejaVu Sans Mono',Menlo,Consolas,monospace;font-size:10.5px;font-weight:700">agent-flightbox</text><text x="824.0" y="183.0" fill="#141109" text-anchor="end" style="font-family:ui-monospace,'SF Mono','Cascadia Code','DejaVu Sans Mono',Menlo,Consolas,monospace;font-size:10.5px;font-weight:800">13</text><circle cx="30.0" cy="195.0" r="3.6" fill="#dea584" stroke="#141109" stroke-width="1.2"/><text x="40.0" y="199.0" fill="#141109" style="font-family:ui-monospace,'SF Mono','Cascadia Code','DejaVu Sans Mono',Menlo,Consolas,monospace;font-size:10.5px;font-weight:700">mcp-sentinel</text><text x="824.0" y="199.0" fill="#141109" text-anchor="end" style="font-family:ui-monospace,'SF Mono','Cascadia Code','DejaVu Sans Mono',Menlo,Consolas,monospace;font-size:10.5px;font-weight:800">10</text><circle cx="30.0" cy="211.0" r="3.6" fill="#701516" stroke="#141109" stroke-width="1.2"/><text x="40.0" y="215.0" fill="#141109" style="font-family:ui-monospace,'SF Mono','Cascadia Code','DejaVu Sans Mono',Menlo,Consolas,monospace;font-size:10.5px;font-weight:700">gemfile-lock-audit</text><text x="824.0" y="215.0" fill="#141109" text-anchor="end" style="font-family:ui-monospace,'SF Mono','Cascadia Code','DejaVu Sans Mono',Menlo,Consolas,monospace;font-size:10.5px;font-weight:800">10</text><circle cx="30.0" cy="227.0" r="3.6" fill="#701516" stroke="#141109" stroke-width="1.2"/><text x="40.0" y="231.0" fill="#141109" style="font-family:ui-monospace,'SF Mono','Cascadia Code','DejaVu Sans Mono',Menlo,Consolas,monospace;font-size:10.5px;font-weight:700">ml-kem-rb</text><text x="824.0" y="231.0" fill="#141109" text-anchor="end" style="font-family:ui-monospace,'SF Mono','Cascadia Code','DejaVu Sans Mono',Menlo,Consolas,monospace;font-size:10.5px;font-weight:800">9</text><circle cx="30.0" cy="243.0" r="3.6" fill="#00ADD8" stroke="#141109" stroke-width="1.2"/><text x="40.0" y="247.0" fill="#141109" style="font-family:ui-monospace,'SF Mono','Cascadia Code','DejaVu Sans Mono',Menlo,Consolas,monospace;font-size:10.5px;font-weight:700">localmodel-fit</text><text x="824.0" y="247.0" fill="#141109" text-anchor="end" style="font-family:ui-monospace,'SF Mono','Cascadia Code','DejaVu Sans Mono',Menlo,Consolas,monospace;font-size:10.5px;font-weight:800">8</text><circle cx="30.0" cy="259.0" r="3.6" fill="#f1e05a" stroke="#141109" stroke-width="1.2"/><text x="40.0" y="263.0" fill="#141109" style="font-family:ui-monospace,'SF Mono','Cascadia Code','DejaVu Sans Mono',Menlo,Consolas,monospace;font-size:10.5px;font-weight:700">trace2eval</text><text x="824.0" y="263.0" fill="#141109" text-anchor="end" style="font-family:ui-monospace,'SF Mono','Cascadia Code','DejaVu Sans Mono',Menlo,Consolas,monospace;font-size:10.5px;font-weight:800">8</text><circle cx="30.0" cy="275.0" r="3.6" fill="#701516" stroke="#141109" stroke-width="1.2"/><text x="40.0" y="279.0" fill="#141109" style="font-family:ui-monospace,'SF Mono','Cascadia Code','DejaVu Sans Mono',Menlo,Consolas,monospace;font-size:10.5px;font-weight:700">idempotent-rack</text><text x="824.0" y="279.0" fill="#141109" text-anchor="end" style="font-family:ui-monospace,'SF Mono','Cascadia Code','DejaVu Sans Mono',Menlo,Consolas,monospace;font-size:10.5px;font-weight:800">7</text><circle cx="30.0" cy="291.0" r="3.6" fill="#00ADD8" stroke="#141109" stroke-width="1.2"/><text x="40.0" y="295.0" fill="#141109" style="font-family:ui-monospace,'SF Mono','Cascadia Code','DejaVu Sans Mono',Menlo,Consolas,monospace;font-size:10.5px;font-weight:700">modelgate</text><text x="824.0" y="295.0" fill="#141109" text-anchor="end" style="font-family:ui-monospace,'SF Mono','Cascadia Code','DejaVu Sans Mono',Menlo,Consolas,monospace;font-size:10.5px;font-weight:800">5</text><circle cx="30.0" cy="307.0" r="3.6" fill="#701516" stroke="#141109" stroke-width="1.2"/><text x="40.0" y="311.0" fill="#141109" style="font-family:ui-monospace,'SF Mono','Cascadia Code','DejaVu Sans Mono',Menlo,Consolas,monospace;font-size:10.5px;font-weight:700">acts-as-mcp</text><text x="824.0" y="311.0" fill="#141109" text-anchor="end" style="font-family:ui-monospace,'SF Mono','Cascadia Code','DejaVu Sans Mono',Menlo,Consolas,monospace;font-size:10.5px;font-weight:800">5</text><g fill="none" stroke="#e4dcc6" stroke-width="1"><rect x="176.0" y="125.0" width="41.3" height="12" rx="1"/><rect x="219.3" y="125.0" width="41.3" height="12" rx="1"/><rect x="262.6" y="125.0" width="41.3" height="12" rx="1"/><rect x="305.9" y="125.0" width="41.3" height="12" rx="1"/><rect x="349.1" y="125.0" width="41.3" height="12" rx="1"/><rect x="392.4" y="125.0" width="41.3" height="12" rx="1"/><rect x="435.7" y="125.0" width="41.3" height="12" rx="1"/><rect x="522.3" y="125.0" width="41.3" height="12" rx="1"/><rect x="565.6" y="125.0" width="41.3" height="12" rx="1"/><rect x="176.0" y="141.0" width="41.3" height="12" rx="1"/><rect x="219.3" y="141.0" width="41.3" height="12" rx="1"/><rect x="262.6" y="141.0" width="41.3" height="12" rx="1"/><rect x="305.9" y="141.0" width="41.3" height="12" rx="1"/><rect x="349.1" y="141.0" width="41.3" height="12" rx="1"/><rect x="392.4" y="141.0" width="41.3" height="12" rx="1"/><rect x="479.0" y="141.0" width="41.3" height="12" rx="1"/><rect x="522.3" y="141.0" width="41.3" height="12" rx="1"/><rect x="565.6" y="141.0" width="41.3" height="12" rx="1"/><rect x="176.0" y="157.0" width="41.3" height="12" rx="1"/><rect x="219.3" y="157.0" width="41.3" height="12" rx="1"/><rect x="262.6" y="157.0" width="41.3" height="12" rx="1"/><rect x="305.9" y="157.0" width="41.3" height="12" rx="1"/><rect x="349.1" y="157.0" width="41.3" height="12" rx="1"/><rect x="392.4" y="157.0" width="41.3" height="12" rx="1"/><rect x="435.7" y="157.0" width="41.3" height="12" rx="1"/><rect x="565.6" y="157.0" width="41.3" height="12" rx="1"/><rect x="695.4" y="157.0" width="41.3" height="12" rx="1"/><rect x="738.7" y="157.0" width="41.3" height="12" rx="1"/><rect x="176.0" y="173.0" width="41.3" height="12" rx="1"/><rect x="219.3" y="173.0" width="41.3" height="12" rx="1"/><rect x="262.6" y="173.0" width="41.3" height="12" rx="1"/><rect x="305.9" y="173.0" width="41.3" height="12" rx="1"/><rect x="349.1" y="173.0" width="41.3" height="12" rx="1"/><rect x="392.4" y="173.0" width="41.3" height="12" rx="1"/><rect x="435.7" y="173.0" width="41.3" height="12" rx="1"/><rect x="479.0" y="173.0" width="41.3" height="12" rx="1"/><rect x="522.3" y="173.0" width="41.3" height="12" rx="1"/><rect x="565.6" y="173.0" width="41.3" height="12" rx="1"/><rect x="695.4" y="173.0" width="41.3" height="12" rx="1"/><rect x="738.7" y="173.0" width="41.3" height="12" rx="1"/><rect x="176.0" y="189.0" width="41.3" height="12" rx="1"/><rect x="219.3" y="189.0" width="41.3" height="12" rx="1"/><rect x="262.6" y="189.0" width="41.3" height="12" rx="1"/><rect x="305.9" y="189.0" width="41.3" height="12" rx="1"/><rect x="349.1" y="189.0" width="41.3" height="12" rx="1"/><rect x="392.4" y="189.0" width="41.3" height="12" rx="1"/><rect x="479.0" y="189.0" width="41.3" height="12" rx="1"/><rect x="522.3" y="189.0" width="41.3" height="12" rx="1"/><rect x="565.6" y="189.0" width="41.3" height="12" rx="1"/><rect x="738.7" y="189.0" width="41.3" height="12" rx="1"/><rect x="176.0" y="205.0" width="41.3" height="12" rx="1"/><rect x="219.3" y="205.0" width="41.3" height="12" rx="1"/><rect x="262.6" y="205.0" width="41.3" height="12" rx="1"/><rect x="305.9" y="205.0" width="41.3" height="12" rx="1"/><rect x="349.1" y="205.0" width="41.3" height="12" rx="1"/><rect x="392.4" y="205.0" width="41.3" height="12" rx="1"/><rect x="738.7" y="205.0" width="41.3" height="12" rx="1"/><rect x="176.0" y="221.0" width="41.3" height="12" rx="1"/><rect x="219.3" y="221.0" width="41.3" height="12" rx="1"/><rect x="262.6" y="221.0" width="41.3" height="12" rx="1"/><rect x="305.9" y="221.0" width="41.3" height="12" rx="1"/><rect x="349.1" y="221.0" width="41.3" height="12" rx="1"/><rect x="392.4" y="221.0" width="41.3" height="12" rx="1"/><rect x="522.3" y="221.0" width="41.3" height="12" rx="1"/><rect x="565.6" y="221.0" width="41.3" height="12" rx="1"/><rect x="695.4" y="221.0" width="41.3" height="12" rx="1"/><rect x="738.7" y="221.0" width="41.3" height="12" rx="1"/><rect x="176.0" y="237.0" width="41.3" height="12" rx="1"/><rect x="219.3" y="237.0" width="41.3" height="12" rx="1"/><rect x="262.6" y="237.0" width="41.3" height="12" rx="1"/><rect x="305.9" y="237.0" width="41.3" height="12" rx="1"/><rect x="349.1" y="237.0" width="41.3" height="12" rx="1"/><rect x="392.4" y="237.0" width="41.3" height="12" rx="1"/><rect x="435.7" y="237.0" width="41.3" height="12" rx="1"/><rect x="522.3" y="237.0" width="41.3" height="12" rx="1"/><rect x="565.6" y="237.0" width="41.3" height="12" rx="1"/><rect x="738.7" y="237.0" width="41.3" height="12" rx="1"/><rect x="176.0" y="253.0" width="41.3" height="12" rx="1"/><rect x="219.3" y="253.0" width="41.3" height="12" rx="1"/><rect x="262.6" y="253.0" width="41.3" height="12" rx="1"/><rect x="305.9" y="253.0" width="41.3" height="12" rx="1"/><rect x="349.1" y="253.0" width="41.3" height="12" rx="1"/><rect x="392.4" y="253.0" width="41.3" height="12" rx="1"/><rect x="479.0" y="253.0" width="41.3" height="12" rx="1"/><rect x="522.3" y="253.0" width="41.3" height="12" rx="1"/><rect x="565.6" y="253.0" width="41.3" height="12" rx="1"/><rect x="695.4" y="253.0" width="41.3" height="12" rx="1"/><rect x="738.7" y="253.0" width="41.3" height="12" rx="1"/><rect x="176.0" y="269.0" width="41.3" height="12" rx="1"/><rect x="219.3" y="269.0" width="41.3" height="12" rx="1"/><rect x="262.6" y="269.0" width="41.3" height="12" rx="1"/><rect x="305.9" y="269.0" width="41.3" height="12" rx="1"/><rect x="349.1" y="269.0" width="41.3" height="12" rx="1"/><rect x="392.4" y="269.0" width="41.3" height="12" rx="1"/><rect x="435.7" y="269.0" width="41.3" height="12" rx="1"/><rect x="479.0" y="269.0" width="41.3" height="12" rx="1"/><rect x="522.3" y="269.0" width="41.3" height="12" rx="1"/><rect x="565.6" y="269.0" width="41.3" height="12" rx="1"/><rect x="608.9" y="269.0" width="41.3" height="12" rx="1"/><rect x="738.7" y="269.0" width="41.3" height="12" rx="1"/><rect x="176.0" y="285.0" width="41.3" height="12" rx="1"/><rect x="219.3" y="285.0" width="41.3" height="12" rx="1"/><rect x="262.6" y="285.0" width="41.3" height="12" rx="1"/><rect x="305.9" y="285.0" width="41.3" height="12" rx="1"/><rect x="349.1" y="285.0" width="41.3" height="12" rx="1"/><rect x="392.4" y="285.0" width="41.3" height="12" rx="1"/><rect x="435.7" y="285.0" width="41.3" height="12" rx="1"/><rect x="479.0" y="285.0" width="41.3" height="12" rx="1"/><rect x="522.3" y="285.0" width="41.3" height="12" rx="1"/><rect x="565.6" y="285.0" width="41.3" height="12" rx="1"/><rect x="176.0" y="301.0" width="41.3" height="12" rx="1"/><rect x="219.3" y="301.0" width="41.3" height="12" rx="1"/><rect x="262.6" y="301.0" width="41.3" height="12" rx="1"/><rect x="305.9" y="301.0" width="41.3" height="12" rx="1"/><rect x="349.1" y="301.0" width="41.3" height="12" rx="1"/><rect x="392.4" y="301.0" width="41.3" height="12" rx="1"/><rect x="435.7" y="301.0" width="41.3" height="12" rx="1"/><rect x="522.3" y="301.0" width="41.3" height="12" rx="1"/><rect x="565.6" y="301.0" width="41.3" height="12" rx="1"/><rect x="608.9" y="301.0" width="41.3" height="12" rx="1"/><rect x="738.7" y="301.0" width="41.3" height="12" rx="1"/></g><g stroke="#141109" stroke-width="1"><rect x="479.0" y="125.0" width="41.3" height="12" rx="1" fill="#ff1f7a" fill-opacity="1.0"/><rect x="608.9" y="125.0" width="41.3" height="12" rx="1" fill="#ff7a45" fill-opacity="0.36"/><rect x="652.1" y="125.0" width="41.3" height="12" rx="1" fill="#ff7a45" fill-opacity="0.4"/><rect x="695.4" y="125.0" width="41.3" height="12" rx="1" fill="#ff7a45" fill-opacity="0.36"/><rect x="738.7" y="125.0" width="41.3" height="12" rx="1" fill="#ff7a45" fill-opacity="0.36"/><rect x="435.7" y="141.0" width="41.3" height="12" rx="1" fill="#ff7a45" fill-opacity="0.81"/><rect x="608.9" y="141.0" width="41.3" height="12" rx="1" fill="#ff7a45" fill-opacity="0.36"/><rect x="652.1" y="141.0" width="41.3" height="12" rx="1" fill="#ff7a45" fill-opacity="0.36"/><rect x="695.4" y="141.0" width="41.3" height="12" rx="1" fill="#ff7a45" fill-opacity="0.36"/><rect x="738.7" y="141.0" width="41.3" height="12" rx="1" fill="#ff7a45" fill-opacity="0.36"/><rect x="479.0" y="157.0" width="41.3" height="12" rx="1" fill="#ff7a45" fill-opacity="0.66"/><rect x="522.3" y="157.0" width="41.3" height="12" rx="1" fill="#ff7a45" fill-opacity="0.43"/><rect x="608.9" y="157.0" width="41.3" height="12" rx="1" fill="#ff7a45" fill-opacity="0.43"/><rect x="652.1" y="157.0" width="41.3" height="12" rx="1" fill="#ff7a45" fill-opacity="0.4"/><rect x="608.9" y="173.0" width="41.3" height="12" rx="1" fill="#ff7a45" fill-opacity="0.74"/><rect x="652.1" y="173.0" width="41.3" height="12" rx="1" fill="#ff7a45" fill-opacity="0.4"/><rect x="435.7" y="189.0" width="41.3" height="12" rx="1" fill="#ff7a45" fill-opacity="0.47"/><rect x="608.9" y="189.0" width="41.3" height="12" rx="1" fill="#ff7a45" fill-opacity="0.47"/><rect x="652.1" y="189.0" width="41.3" height="12" rx="1" fill="#ff7a45" fill-opacity="0.36"/><rect x="695.4" y="189.0" width="41.3" height="12" rx="1" fill="#ff7a45" fill-opacity="0.36"/><rect x="435.7" y="205.0" width="41.3" height="12" rx="1" fill="#ff7a45" fill-opacity="0.4"/><rect x="479.0" y="205.0" width="41.3" height="12" rx="1" fill="#ff7a45" fill-opacity="0.36"/><rect x="522.3" y="205.0" width="41.3" height="12" rx="1" fill="#ff7a45" fill-opacity="0.36"/><rect x="565.6" y="205.0" width="41.3" height="12" rx="1" fill="#ff7a45" fill-opacity="0.4"/><rect x="608.9" y="205.0" width="41.3" height="12" rx="1" fill="#ff7a45" fill-opacity="0.36"/><rect x="652.1" y="205.0" width="41.3" height="12" rx="1" fill="#ff7a45" fill-opacity="0.4"/><rect x="695.4" y="205.0" width="41.3" height="12" rx="1" fill="#ff7a45" fill-opacity="0.36"/><rect x="435.7" y="221.0" width="41.3" height="12" rx="1" fill="#ff7a45" fill-opacity="0.47"/><rect x="479.0" y="221.0" width="41.3" height="12" rx="1" fill="#ff7a45" fill-opacity="0.4"/><rect x="608.9" y="221.0" width="41.3" height="12" rx="1" fill="#ff7a45" fill-opacity="0.4"/><rect x="652.1" y="221.0" width="41.3" height="12" rx="1" fill="#ff7a45" fill-opacity="0.36"/><rect x="479.0" y="237.0" width="41.3" height="12" rx="1" fill="#ff7a45" fill-opacity="0.4"/><rect x="608.9" y="237.0" width="41.3" height="12" rx="1" fill="#ff7a45" fill-opacity="0.4"/><rect x="652.1" y="237.0" width="41.3" height="12" rx="1" fill="#ff7a45" fill-opacity="0.43"/><rect x="695.4" y="237.0" width="41.3" height="12" rx="1" fill="#ff7a45" fill-opacity="0.36"/><rect x="435.7" y="253.0" width="41.3" height="12" rx="1" fill="#ff7a45" fill-opacity="0.51"/><rect x="608.9" y="253.0" width="41.3" height="12" rx="1" fill="#ff7a45" fill-opacity="0.36"/><rect x="652.1" y="253.0" width="41.3" height="12" rx="1" fill="#ff7a45" fill-opacity="0.4"/><rect x="652.1" y="269.0" width="41.3" height="12" rx="1" fill="#ff7a45" fill-opacity="0.51"/><rect x="695.4" y="269.0" width="41.3" height="12" rx="1" fill="#ff7a45" fill-opacity="0.4"/><rect x="608.9" y="285.0" width="41.3" height="12" rx="1" fill="#ff7a45" fill-opacity="0.4"/><rect x="652.1" y="285.0" width="41.3" height="12" rx="1" fill="#ff7a45" fill-opacity="0.36"/><rect x="695.4" y="285.0" width="41.3" height="12" rx="1" fill="#ff7a45" fill-opacity="0.36"/><rect x="738.7" y="285.0" width="41.3" height="12" rx="1" fill="#ff7a45" fill-opacity="0.36"/><rect x="479.0" y="301.0" width="41.3" height="12" rx="1" fill="#ff7a45" fill-opacity="0.4"/><rect x="652.1" y="301.0" width="41.3" height="12" rx="1" fill="#ff7a45" fill-opacity="0.4"/><rect x="695.4" y="301.0" width="41.3" height="12" rx="1" fill="#ff7a45" fill-opacity="0.36"/></g><text x="196.6" y="328.0" fill="#948f7e" text-anchor="middle" style="font-family:ui-monospace,'SF Mono','Cascadia Code','DejaVu Sans Mono',Menlo,Consolas,monospace;font-size:8.5px;font-weight:700">07/10</text><text x="759.4" y="328.0" fill="#948f7e" text-anchor="middle" style="font-family:ui-monospace,'SF Mono','Cascadia Code','DejaVu Sans Mono',Menlo,Consolas,monospace;font-size:8.5px;font-weight:700">07/23</text><text x="176.0" y="348.0" fill="#948f7e" style="font-family:ui-monospace,'SF Mono','Cascadia Code','DejaVu Sans Mono',Menlo,Consolas,monospace;font-size:9.5px;font-weight:700">less</text><rect x="210.0" y="340.0" width="12.0" height="10.0" rx="1" fill="#ff7a45" stroke="#141109" stroke-width="1" opacity="0.32"/><rect x="226.0" y="340.0" width="12.0" height="10.0" rx="1" fill="#ff7a45" stroke="#141109" stroke-width="1" opacity="0.49"/><rect x="242.0" y="340.0" width="12.0" height="10.0" rx="1" fill="#ff7a45" stroke="#141109" stroke-width="1" opacity="0.66"/><rect x="258.0" y="340.0" width="12.0" height="10.0" rx="1" fill="#ff7a45" stroke="#141109" stroke-width="1" opacity="0.83"/><rect x="274.0" y="340.0" width="12.0" height="10.0" rx="1" fill="#ff7a45" stroke="#141109" stroke-width="1" opacity="1.0"/><text x="294.0" y="348.0" fill="#948f7e" style="font-family:ui-monospace,'SF Mono','Cascadia Code','DejaVu Sans Mono',Menlo,Consolas,monospace;font-size:9.5px;font-weight:700">more</text><text x="824.0" y="348.0" fill="#948f7e" text-anchor="end" style="font-family:ui-monospace,'SF Mono','Cascadia Code','DejaVu Sans Mono',Menlo,Consolas,monospace;font-size:9.5px;font-weight:700">commits →</text></svg>