<svg xmlns="http://www.w3.org/2000/svg" width="850" height="336" viewBox="0 0 850 336" role="img" font-family="'Arial Black',system-ui,-apple-system,'Segoe UI',Roboto,Helvetica,Arial,sans-serif"><defs><pattern id="dgp" width="19" height="19" patternUnits="userSpaceOnUse"><circle cx="1.6" cy="1.6" r="1.15" fill="#f4efe1" opacity="0.05"/></pattern><radialGradient id="swp" cx="0.5" cy="0.5" r="0.5"><stop offset="0" stop-color="#ff2e88" stop-opacity="0.34"/><stop offset="1" stop-color="#ff2e88" stop-opacity="0"/></radialGradient></defs><rect x="0.0" y="0.0" width="850.0" height="336.0" rx="0" fill="#0d1117"/><rect x="0.0" y="0.0" width="850.0" height="336.0" rx="0" fill="url(#dgp)"/><line x1="822.0" y1="11.0" x2="839.0" y2="11.0" stroke="#ff2e88" stroke-width="3" stroke-linecap="butt"/><line x1="839.0" y1="11.0" x2="839.0" y2="28.0" stroke="#ff2e88" stroke-width="3" stroke-linecap="butt"/><line x1="11.0" y1="325.0" x2="28.0" y2="325.0" stroke="#ff2e88" stroke-width="3" stroke-linecap="butt"/><line x1="11.0" y1="308.0" x2="11.0" y2="325.0" stroke="#ff2e88" stroke-width="3" stroke-linecap="butt"/><rect x="29.0" y="25.0" width="212.0" height="30.0" rx="3" fill="#f4efe1"/><rect x="24.0" y="20.0" width="212.0" height="30.0" rx="3" fill="#ff9142" stroke="#f4efe1" stroke-width="2.5"/><text x="37.0" y="40.2" fill="#141109" text-anchor="start" style="font-family:ui-monospace,'SF Mono','Cascadia Code','DejaVu Sans Mono',Menlo,Consolas,monospace;font-size:15px;font-weight:800;letter-spacing:0.5px">04 // ACTIVITY PULSE</text><text x="24.0" y="72.0" fill="#b3ae9d" text-anchor="start" style="font-family:'Arial Black',system-ui,-apple-system,'Segoe UI',Roboto,Helvetica,Arial,sans-serif;font-size:12px;font-weight:600">real commits across the public flagships over the last 30 days · live from the API</text><circle cx="784.0" cy="33.0" r="4" fill="#ff2e88"><animate attributeName="opacity" values="1;0.25;1" dur="1.6s" repeatCount="indefinite"/></circle><text x="794.0" y="36.0" fill="#b3ae9d" text-anchor="start" style="font-family:ui-monospace,'SF Mono','Cascadia Code','DejaVu Sans Mono',Menlo,Consolas,monospace;font-size:10.5px;font-weight:800;letter-spacing:1px">LIVE</text><rect x="28.0" y="86.0" width="105.2" height="24.0" rx="3" fill="#f4efe1"/><rect x="24.0" y="82.0" width="105.2" height="24.0" rx="3" fill="#191921" stroke="#f4efe1" stroke-width="2"/><text x="37.0" y="98.0" fill="#ff9142" text-anchor="start" style="font-family:ui-monospace,'SF Mono','Cascadia Code','DejaVu Sans Mono',Menlo,Consolas,monospace;font-size:12px;font-weight:800">120</text><text x="67.0" y="98.0" fill="#b3ae9d" text-anchor="start" style="font-family:ui-monospace,'SF Mono','Cascadia Code','DejaVu Sans Mono',Menlo,Consolas,monospace;font-size:10px;font-weight:700">COMMITS</text><rect x="145.2" y="86.0" width="119.6" height="24.0" rx="3" fill="#f4efe1"/><rect x="141.2" y="82.0" width="119.6" height="24.0" rx="3" fill="#191921" stroke="#f4efe1" stroke-width="2"/><text x="154.2" y="98.0" fill="#34e2ea" text-anchor="start" style="font-family:ui-monospace,'SF Mono','Cascadia Code','DejaVu Sans Mono',Menlo,Consolas,monospace;font-size:12px;font-weight:800">6</text><text x="168.2" y="98.0" fill="#b3ae9d" text-anchor="start" style="font-family:ui-monospace,'SF Mono','Cascadia Code','DejaVu Sans Mono',Menlo,Consolas,monospace;font-size:10px;font-weight:700">ACTIVE DAYS</text><rect x="276.8" y="86.0" width="126.8" height="24.0" rx="3" fill="#f4efe1"/><rect x="272.8" y="82.0" width="126.8" height="24.0" rx="3" fill="#191921" stroke="#f4efe1" stroke-width="2"/><text x="285.8" y="98.0" fill="#ff2e88" text-anchor="start" style="font-family:ui-monospace,'SF Mono','Cascadia Code','DejaVu Sans Mono',Menlo,Consolas,monospace;font-size:12px;font-weight:800">34</text><text x="307.8" y="98.0" fill="#b3ae9d" text-anchor="start" style="font-family:ui-monospace,'SF Mono','Cascadia Code','DejaVu Sans Mono',Menlo,Consolas,monospace;font-size:10px;font-weight:700">BUSIEST DAY</text><line x1="26.0" y1="204.0" x2="824.0" y2="204.0" stroke="#f4efe1" stroke-width="2.5" stroke-linecap="butt"/><rect x="30.5" y="201.0" width="17.6" height="3.0" rx="1" fill="#2b2b33"/><rect x="57.1" y="201.0" width="17.6" height="3.0" rx="1" fill="#2b2b33"/><rect x="83.7" y="201.0" width="17.6" height="3.0" rx="1" fill="#2b2b33"/><rect x="110.3" y="201.0" width="17.6" height="3.0" rx="1" fill="#2b2b33"/><rect x="136.9" y="201.0" width="17.6" height="3.0" rx="1" fill="#2b2b33"/><rect x="163.5" y="201.0" width="17.6" height="3.0" rx="1" fill="#2b2b33"/><rect x="190.1" y="201.0" width="17.6" height="3.0" rx="1" fill="#2b2b33"/><rect x="216.7" y="201.0" width="17.6" height="3.0" rx="1" fill="#2b2b33"/><rect x="243.3" y="201.0" width="17.6" height="3.0" rx="1" fill="#2b2b33"/><rect x="269.9" y="201.0" width="17.6" height="3.0" rx="1" fill="#2b2b33"/><rect x="296.5" y="201.0" width="17.6" height="3.0" rx="1" fill="#2b2b33"/><rect x="323.1" y="201.0" width="17.6" height="3.0" rx="1" fill="#2b2b33"/><rect x="349.7" y="201.0" width="17.6" height="3.0" rx="1" fill="#2b2b33"/><rect x="376.3" y="201.0" width="17.6" height="3.0" rx="1" fill="#2b2b33"/><rect x="402.9" y="201.0" width="17.6" height="3.0" rx="1" fill="#2b2b33"/><rect x="429.5" y="201.0" width="17.6" height="3.0" rx="1" fill="#2b2b33"/><rect x="456.1" y="201.0" width="17.6" height="3.0" rx="1" fill="#2b2b33"/><rect x="482.7" y="201.0" width="17.6" height="3.0" rx="1" fill="#2b2b33"/><rect x="509.3" y="201.0" width="17.6" height="3.0" rx="1" fill="#2b2b33"/><rect x="535.9" y="201.0" width="17.6" height="3.0" rx="1" fill="#2b2b33"/><rect x="562.5" y="201.0" width="17.6" height="3.0" rx="1" fill="#2b2b33"/><rect x="589.1" y="201.0" width="17.6" height="3.0" rx="1" fill="#2b2b33"/><rect x="615.7" y="201.0" width="17.6" height="3.0" rx="1" fill="#2b2b33"/><rect x="642.3" y="201.0" width="17.6" height="3.0" rx="1" fill="#2b2b33"/><rect x="668.9" y="141.4" width="17.6" height="62.6" rx="1" fill="#ff9142" stroke="#f4efe1" stroke-width="1.2"/><rect x="695.5" y="128.0" width="17.6" height="76.0" rx="1" fill="#ff2e88" stroke="#f4efe1" stroke-width="1.2"/><rect x="722.1" y="195.1" width="17.6" height="8.9" rx="1" fill="#ff9142" stroke="#f4efe1" stroke-width="1.2"/><rect x="748.7" y="199.5" width="17.6" height="4.5" rx="1" fill="#ff9142" stroke="#f4efe1" stroke-width="1.2"/><rect x="775.3" y="141.4" width="17.6" height="62.6" rx="1" fill="#ff9142" stroke="#f4efe1" stroke-width="1.2"/><rect x="801.9" y="150.4" width="17.6" height="53.6" rx="1" fill="#ff9142" stroke="#f4efe1" stroke-width="1.2"/><text x="26.0" y="219.0" fill="#6f6c60" text-anchor="start" style="font-family:ui-monospace,'SF Mono','Cascadia Code','DejaVu Sans Mono',Menlo,Consolas,monospace;font-size:9.5px;font-weight:700">Jun 22</text><text x="824.0" y="219.0" fill="#6f6c60" text-anchor="end" style="font-family:ui-monospace,'SF Mono','Cascadia Code','DejaVu Sans Mono',Menlo,Consolas,monospace;font-size:9.5px;font-weight:700">Jul 21</text><text x="26.0" y="244.0" fill="#f4efe1" text-anchor="start" style="font-family:ui-monospace,'SF Mono','Cascadia Code','DejaVu Sans Mono',Menlo,Consolas,monospace;font-size:10.5px;font-weight:800;letter-spacing:0.5px">RECENT COMMITS</text><circle cx="31.0" cy="257.0" r="3.6" fill="#6aa3ff" stroke="#f4efe1" stroke-width="1.2"/><text x="42.0" y="260.0" fill="#f4efe1" text-anchor="start" style="font-family:ui-monospace,'SF Mono','Cascadia Code','DejaVu Sans Mono',Menlo,Consolas,monospace;font-size:10.5px;font-weight:800">localmodel-fit</text><text x="151.4" y="260.0" fill="#b3ae9d" text-anchor="start" style="font-family:ui-monospace,'SF Mono','Cascadia Code','DejaVu Sans Mono',Menlo,Consolas,monospace;font-size:10.5px;font-weight:600">Add prefill-phase modeling and a measured-vs-predicted benchmark harness</text><text x="820.0" y="260.0" fill="#6f6c60" text-anchor="end" style="font-family:ui-monospace,'SF Mono','Cascadia Code','DejaVu Sans Mono',Menlo,Consolas,monospace;font-size:10px;font-weight:700">8h</text><circle cx="31.0" cy="273.0" r="3.6" fill="#ff6b6b" stroke="#f4efe1" stroke-width="1.2"/><text x="42.0" y="276.0" fill="#f4efe1" text-anchor="start" style="font-family:ui-monospace,'SF Mono','Cascadia Code','DejaVu Sans Mono',Menlo,Consolas,monospace;font-size:10.5px;font-weight:800">toolcage</text><text x="108.8" y="276.0" fill="#b3ae9d" text-anchor="start" style="font-family:ui-monospace,'SF Mono','Cascadia Code','DejaVu Sans Mono',Menlo,Consolas,monospace;font-size:10.5px;font-weight:600">feat: opt-in tools/list pagination with stateless, tamper-evident cursors</text><text x="820.0" y="276.0" fill="#6f6c60" text-anchor="end" style="font-family:ui-monospace,'SF Mono','Cascadia Code','DejaVu Sans Mono',Menlo,Consolas,monospace;font-size:10px;font-weight:700">8h</text><circle cx="31.0" cy="289.0" r="3.6" fill="#5ee08a" stroke="#f4efe1" stroke-width="1.2"/><text x="42.0" y="292.0" fill="#f4efe1" text-anchor="start" style="font-family:ui-monospace,'SF Mono','Cascadia Code','DejaVu Sans Mono',Menlo,Consolas,monospace;font-size:10.5px;font-weight:800">idempotent-rack</text><text x="158.5" y="292.0" fill="#b3ae9d" text-anchor="start" style="font-family:ui-monospace,'SF Mono','Cascadia Code','DejaVu Sans Mono',Menlo,Consolas,monospace;font-size:10.5px;font-weight:600">feat: RedisStore + ActiveRecordStore, cross-host (0.3.0)</text><text x="820.0" y="292.0" fill="#6f6c60" text-anchor="end" style="font-family:ui-monospace,'SF Mono','Cascadia Code','DejaVu Sans Mono',Menlo,Consolas,monospace;font-size:10px;font-weight:700">9h</text><circle cx="31.0" cy="305.0" r="3.6" fill="#5ee08a" stroke="#f4efe1" stroke-width="1.2"/><text x="42.0" y="308.0" fill="#f4efe1" text-anchor="start" style="font-family:ui-monospace,'SF Mono','Cascadia Code','DejaVu Sans Mono',Menlo,Consolas,monospace;font-size:10.5px;font-weight:800">idempotent-rack</text><text x="158.5" y="308.0" fill="#b3ae9d" text-anchor="start" style="font-family:ui-monospace,'SF Mono','Cascadia Code','DejaVu Sans Mono',Menlo,Consolas,monospace;font-size:10.5px;font-weight:600">feat: FileStore + StoreContract, zero-dep (0.2.0)</text><text x="820.0" y="308.0" fill="#6f6c60" text-anchor="end" style="font-family:ui-monospace,'SF Mono','Cascadia Code','DejaVu Sans Mono',Menlo,Consolas,monospace;font-size:10px;font-weight:700">9h</text><circle cx="31.0" cy="321.0" r="3.6" fill="#ffd23f" stroke="#f4efe1" stroke-width="1.2"/><text x="42.0" y="324.0" fill="#f4efe1" text-anchor="start" style="font-family:ui-monospace,'SF Mono','Cascadia Code','DejaVu Sans Mono',Menlo,Consolas,monospace;font-size:10.5px;font-weight:800">gemfile-lock-audit</text><text x="179.8" y="324.0" fill="#b3ae9d" text-anchor="start" style="font-family:ui-monospace,'SF Mono','Cascadia Code','DejaVu Sans Mono',Menlo,Consolas,monospace;font-size:10.5px;font-weight:600">daily: capture GIT/PATH spec adjacency, trace ORPHANED_SPEC reachability …</text><text x="820.0" y="324.0" fill="#6f6c60" text-anchor="end" style="font-family:ui-monospace,'SF Mono','Cascadia Code','DejaVu Sans Mono',Menlo,Consolas,monospace;font-size:10px;font-weight:700">10h</text></svg>