<svg xmlns="http://www.w3.org/2000/svg" width="850" height="384" viewBox="0 0 850 384" role="img" font-family="'Arial Black',system-ui,-apple-system,'Segoe UI',Roboto,Helvetica,Arial,sans-serif"><defs><pattern id="dgk" width="19" height="19" patternUnits="userSpaceOnUse"><circle cx="1.6" cy="1.6" r="1.15" fill="#f4efe1" opacity="0.05"/></pattern></defs><rect x="0.0" y="0.0" width="850.0" height="384.0" fill="#0d1117"/><rect x="0.0" y="0.0" width="850.0" height="384.0" fill="url(#dgk)"/><line x1="822.0" y1="11.0" x2="839.0" y2="11.0" stroke="#ff2e88" stroke-width="3"/><line x1="839.0" y1="11.0" x2="839.0" y2="28.0" stroke="#ff2e88" stroke-width="3"/><line x1="11.0" y1="373.0" x2="28.0" y2="373.0" stroke="#ff2e88" stroke-width="3"/><line x1="11.0" y1="356.0" x2="11.0" y2="373.0" stroke="#ff2e88" stroke-width="3"/><rect x="29.0" y="25.0" width="267.8" height="30.0" rx="3" fill="#f4efe1"/><rect x="24.0" y="20.0" width="267.8" height="30.0" rx="3" fill="#ff6b6b" stroke="#f4efe1" stroke-width="2.5"/><text x="37.0" y="40.2" fill="#141109" style="font-family:ui-monospace,'SF Mono','Cascadia Code','DejaVu Sans Mono',Menlo,Consolas,monospace;font-size:15px;font-weight:800;letter-spacing:0.5px">10 // AGENT-SECURITY STACK</text><text x="24.0" y="72.0" fill="#b3ae9d" style="font-family:'Arial Black',system-ui,-apple-system,'Segoe UI',Roboto,Helvetica,Arial,sans-serif;font-size:12px;font-weight:600">not scattered tools — where each flagship sits in one real agent request path</text><text x="30.0" y="92.0" fill="#6f6c60" style="font-family:ui-monospace,'SF Mono','Cascadia Code','DejaVu Sans Mono',Menlo,Consolas,monospace;font-size:9.5px;font-weight:800;letter-spacing:1px">REQUEST PATH</text><rect x="33.0" y="114.0" width="92.0" height="62.0" rx="3" fill="#f4efe1"/><rect x="28.0" y="108.0" width="92.0" height="62.0" rx="3" fill="#191921" stroke="#f4efe1" stroke-width="2.5"/><rect x="28.0" y="108.0" width="7.0" height="62.0" fill="#ff6b6b"/><line x1="35.0" y1="108.0" x2="35.0" y2="170.0" stroke="#f4efe1" stroke-width="2.5"/><rect x="28.0" y="108.0" width="92.0" height="5.0" fill="#ff6b6b"/><text x="74.0" y="138.0" fill="#f4efe1" text-anchor="middle" style="font-family:ui-monospace,'SF Mono','Cascadia Code','DejaVu Sans Mono',Menlo,Consolas,monospace;font-size:13px;font-weight:800">AGENT</text><text x="74.0" y="154.0" fill="#b3ae9d" text-anchor="middle" style="font-family:ui-monospace,'SF Mono','Cascadia Code','DejaVu Sans Mono',Menlo,Consolas,monospace;font-size:9px;font-weight:600">LLM + tools</text><rect x="215.0" y="101.0" width="168.0" height="50.0" rx="3" fill="#f4efe1"/><rect x="210.0" y="96.0" width="168.0" height="50.0" rx="3" fill="#191921" stroke="#f4efe1" stroke-width="2.5"/><rect x="210.0" y="96.0" width="168.0" height="5.0" fill="#6aa3ff"/><line x1="210.0" y1="101.0" x2="378.0" y2="101.0" stroke="#f4efe1" stroke-width="2"/><text x="221.0" y="120.0" fill="#f4efe1" style="font-family:ui-monospace,'SF Mono','Cascadia Code','DejaVu Sans Mono',Menlo,Consolas,monospace;font-size:12.5px;font-weight:800">modelgate</text><text x="221.0" y="135.0" fill="#b3ae9d" style="font-family:ui-monospace,'SF Mono','Cascadia Code','DejaVu Sans Mono',Menlo,Consolas,monospace;font-size:9.5px;font-weight:600">route · fallback · cost</text><text x="410.0" y="116.0" fill="#b3ae9d" style="font-family:ui-monospace,'SF Mono','Cascadia Code','DejaVu Sans Mono',Menlo,Consolas,monospace;font-size:11px;font-weight:800">LLM</text><text x="400.0" y="132.0" fill="#6f6c60" style="font-family:ui-monospace,'SF Mono','Cascadia Code','DejaVu Sans Mono',Menlo,Consolas,monospace;font-size:8.5px;font-weight:600">provider</text><rect x="386.0" y="100.0" width="3.0" height="42.0" rx="1" fill="#6aa3ff"/><rect x="215.0" y="163.0" width="168.0" height="50.0" rx="3" fill="#f4efe1"/><rect x="210.0" y="158.0" width="168.0" height="50.0" rx="3" fill="#191921" stroke="#f4efe1" stroke-width="2.5"/><rect x="210.0" y="158.0" width="168.0" height="5.0" fill="#6aa3ff"/><line x1="210.0" y1="163.0" x2="378.0" y2="163.0" stroke="#f4efe1" stroke-width="2"/><text x="221.0" y="182.0" fill="#f4efe1" style="font-family:ui-monospace,'SF Mono','Cascadia Code','DejaVu Sans Mono',Menlo,Consolas,monospace;font-size:12.5px;font-weight:800">mcp-gateway-lite</text><text x="221.0" y="197.0" fill="#b3ae9d" style="font-family:ui-monospace,'SF Mono','Cascadia Code','DejaVu Sans Mono',Menlo,Consolas,monospace;font-size:9.5px;font-weight:600">allowlist · rate-limit</text><rect x="403.0" y="163.0" width="132.0" height="50.0" rx="3" fill="#f4efe1"/><rect x="398.0" y="158.0" width="132.0" height="50.0" rx="3" fill="#191921" stroke="#f4efe1" stroke-width="2.5"/><rect x="398.0" y="158.0" width="132.0" height="5.0" fill="#ff6b6b"/><line x1="398.0" y1="163.0" x2="530.0" y2="163.0" stroke="#f4efe1" stroke-width="2"/><text x="409.0" y="182.0" fill="#f4efe1" style="font-family:ui-monospace,'SF Mono','Cascadia Code','DejaVu Sans Mono',Menlo,Consolas,monospace;font-size:12.5px;font-weight:800">toolcage</text><text x="409.0" y="197.0" fill="#b3ae9d" style="font-family:ui-monospace,'SF Mono','Cascadia Code','DejaVu Sans Mono',Menlo,Consolas,monospace;font-size:9.5px;font-weight:600">WASM sandbox</text><text x="548.0" y="176.0" fill="#b3ae9d" style="font-family:ui-monospace,'SF Mono','Cascadia Code','DejaVu Sans Mono',Menlo,Consolas,monospace;font-size:11px;font-weight:800">TOOL</text><text x="548.0" y="191.0" fill="#6f6c60" style="font-family:ui-monospace,'SF Mono','Cascadia Code','DejaVu Sans Mono',Menlo,Consolas,monospace;font-size:8.5px;font-weight:600">runs</text><rect x="542.0" y="160.0" width="3.0" height="42.0" rx="1" fill="#ff6b6b"/><line x1="120.0" y1="128.0" x2="201.0" y2="121.7" stroke="#6aa3ff" stroke-width="3" stroke-linecap="round"/><polygon points="210.0,121.0 201.4,126.7 200.6,116.7" fill="#6aa3ff"/><line x1="378.0" y1="121.0" x2="379.4" y2="120.6" stroke="#6aa3ff" stroke-width="3" stroke-linecap="round"/><polygon points="388.0,118.0 380.8,125.4 377.9,115.8" fill="#6aa3ff"/><line x1="120.0" y1="150.0" x2="201.6" y2="179.9" stroke="#ff6b6b" stroke-width="3" stroke-linecap="round"/><polygon points="210.0,183.0 199.8,184.6 203.3,175.2" fill="#ff6b6b"/><line x1="378.0" y1="183.0" x2="389.0" y2="183.0" stroke="#f4efe1" stroke-width="3" stroke-linecap="round"/><polygon points="398.0,183.0 389.0,188.0 389.0,178.0" fill="#f4efe1"/><line x1="530.0" y1="183.0" x2="533.0" y2="183.0" stroke="#ff6b6b" stroke-width="3" stroke-linecap="round"/><polygon points="542.0,183.0 533.0,188.0 533.0,178.0" fill="#ff6b6b"/><line x1="24.0" y1="224.0" x2="826.0" y2="224.0" stroke="#2b2b33" stroke-width="2"/><text x="30.0" y="238.0" fill="#6f6c60" style="font-family:ui-monospace,'SF Mono','Cascadia Code','DejaVu Sans Mono',Menlo,Consolas,monospace;font-size:9.5px;font-weight:800;letter-spacing:1px">OBSERVED &amp; VERIFIED BY</text><rect x="32.0" y="256.0" width="189.5" height="50.0" rx="3" fill="#f4efe1"/><rect x="28.0" y="250.0" width="189.5" height="50.0" rx="3" fill="#191921" stroke="#f4efe1" stroke-width="2.5"/><rect x="28.0" y="250.0" width="7.0" height="50.0" fill="#ff6b6b"/><line x1="35.0" y1="250.0" x2="35.0" y2="300.0" stroke="#f4efe1" stroke-width="2.5"/><text x="42.0" y="270.0" fill="#f4efe1" style="font-family:ui-monospace,'SF Mono','Cascadia Code','DejaVu Sans Mono',Menlo,Consolas,monospace;font-size:11px;font-weight:800">agent-rules-audit</text><text x="42.0" y="286.0" fill="#b3ae9d" style="font-family:'Arial Black',system-ui,-apple-system,'Segoe UI',Roboto,Helvetica,Arial,sans-serif;font-size:9px;font-weight:600">lints the agent's rule files</text><rect x="233.5" y="256.0" width="189.5" height="50.0" rx="3" fill="#f4efe1"/><rect x="229.5" y="250.0" width="189.5" height="50.0" rx="3" fill="#191921" stroke="#f4efe1" stroke-width="2.5"/><rect x="229.5" y="250.0" width="7.0" height="50.0" fill="#ff6b6b"/><line x1="236.5" y1="250.0" x2="236.5" y2="300.0" stroke="#f4efe1" stroke-width="2.5"/><text x="243.5" y="270.0" fill="#f4efe1" style="font-family:ui-monospace,'SF Mono','Cascadia Code','DejaVu Sans Mono',Menlo,Consolas,monospace;font-size:11px;font-weight:800">mcp-sentinel</text><text x="243.5" y="286.0" fill="#b3ae9d" style="font-family:'Arial Black',system-ui,-apple-system,'Segoe UI',Roboto,Helvetica,Arial,sans-serif;font-size:9px;font-weight:600">grades the MCP config A–F</text><rect x="435.0" y="256.0" width="189.5" height="50.0" rx="3" fill="#f4efe1"/><rect x="431.0" y="250.0" width="189.5" height="50.0" rx="3" fill="#191921" stroke="#f4efe1" stroke-width="2.5"/><rect x="431.0" y="250.0" width="7.0" height="50.0" fill="#ff6b6b"/><line x1="438.0" y1="250.0" x2="438.0" y2="300.0" stroke="#f4efe1" stroke-width="2.5"/><text x="445.0" y="270.0" fill="#f4efe1" style="font-family:ui-monospace,'SF Mono','Cascadia Code','DejaVu Sans Mono',Menlo,Consolas,monospace;font-size:11px;font-weight:800">agent-flightbox</text><text x="445.0" y="286.0" fill="#b3ae9d" style="font-family:'Arial Black',system-ui,-apple-system,'Segoe UI',Roboto,Helvetica,Arial,sans-serif;font-size:9px;font-weight:600">records the run's syscalls</text><rect x="636.5" y="256.0" width="189.5" height="50.0" rx="3" fill="#f4efe1"/><rect x="632.5" y="250.0" width="189.5" height="50.0" rx="3" fill="#191921" stroke="#f4efe1" stroke-width="2.5"/><rect x="632.5" y="250.0" width="7.0" height="50.0" fill="#6aa3ff"/><line x1="639.5" y1="250.0" x2="639.5" y2="300.0" stroke="#f4efe1" stroke-width="2.5"/><text x="646.5" y="270.0" fill="#f4efe1" style="font-family:ui-monospace,'SF Mono','Cascadia Code','DejaVu Sans Mono',Menlo,Consolas,monospace;font-size:11px;font-weight:800">trace2eval</text><text x="646.5" y="286.0" fill="#b3ae9d" style="font-family:'Arial Black',system-ui,-apple-system,'Segoe UI',Roboto,Helvetica,Arial,sans-serif;font-size:9px;font-weight:600">turns traces into eval sets</text><rect x="29.0" y="327.0" width="802.0" height="40.0" rx="3" fill="#f4efe1"/><rect x="24.0" y="322.0" width="802.0" height="40.0" rx="3" fill="#191921" stroke="#f4efe1" stroke-width="2.5"/><rect x="24.0" y="322.0" width="7.0" height="40.0" fill="#c9a2ff"/><line x1="31.0" y1="322.0" x2="31.0" y2="362.0" stroke="#f4efe1" stroke-width="2.5"/><text x="44.0" y="340.0" fill="#f4efe1" style="font-family:ui-monospace,'SF Mono','Cascadia Code','DejaVu Sans Mono',Menlo,Consolas,monospace;font-size:11px;font-weight:800;letter-spacing:0.5px">POST-QUANTUM FOUNDATION</text><text x="44.0" y="355.0" fill="#b3ae9d" style="font-family:ui-monospace,'SF Mono','Cascadia Code','DejaVu Sans Mono',Menlo,Consolas,monospace;font-size:9.5px;font-weight:600">ml-kem-rb · pqc-scan — the crypto layer this whole stack has to migrate to</text><text x="816.0" y="348.0" fill="#c9a2ff" text-anchor="end" style="font-family:ui-monospace,'SF Mono','Cascadia Code','DejaVu Sans Mono',Menlo,Consolas,monospace;font-size:11px;font-weight:800">FIPS 203</text></svg>