<svg xmlns="http://www.w3.org/2000/svg" width="850" height="446" viewBox="0 0 850 446" role="img" font-family="'Arial Black',system-ui,-apple-system,'Segoe UI',Roboto,Helvetica,Arial,sans-serif"><defs><pattern id="dgs" width="19" height="19" patternUnits="userSpaceOnUse"><circle cx="1.6" cy="1.6" r="1.15" fill="#f4efe1" opacity="0.05"/></pattern></defs><rect x="0.0" y="0.0" width="850.0" height="446.0" fill="#0d1117"/><rect x="0.0" y="0.0" width="850.0" height="446.0" fill="url(#dgs)"/><line x1="822.0" y1="11.0" x2="839.0" y2="11.0" stroke="#ff2e88" stroke-width="3"/><line x1="839.0" y1="11.0" x2="839.0" y2="28.0" stroke="#ff2e88" stroke-width="3"/><line x1="11.0" y1="435.0" x2="28.0" y2="435.0" stroke="#ff2e88" stroke-width="3"/><line x1="11.0" y1="418.0" x2="11.0" y2="435.0" stroke="#ff2e88" stroke-width="3"/><rect x="29.0" y="25.0" width="249.2" height="30.0" rx="3" fill="#f4efe1"/><rect x="24.0" y="20.0" width="249.2" height="30.0" rx="3" fill="#5ee08a" stroke="#f4efe1" stroke-width="2.5"/><text x="37.0" y="40.2" fill="#141109" style="font-family:ui-monospace,'SF Mono','Cascadia Code','DejaVu Sans Mono',Menlo,Consolas,monospace;font-size:15px;font-weight:800;letter-spacing:0.5px">02 // LIVE SYSTEM STATUS</text><text x="24.0" y="72.0" fill="#b3ae9d" style="font-family:'Arial Black',system-ui,-apple-system,'Segoe UI',Roboto,Helvetica,Arial,sans-serif;font-size:12px;font-weight:600">every public flagship — CI verdict, release, last commit &amp; recent build history, live</text><circle cx="784.0" cy="33.0" r="4" fill="#ff2e88"><animate attributeName="opacity" values="1;0.25;1" dur="1.6s" repeatCount="indefinite"/></circle><text x="794.0" y="36.0" fill="#b3ae9d" style="font-family:ui-monospace,'SF Mono','Cascadia Code','DejaVu Sans Mono',Menlo,Consolas,monospace;font-size:10.5px;font-weight:800;letter-spacing:1px">LIVE</text><rect x="28.0" y="86.0" width="132.2" height="24.0" rx="3" fill="#f4efe1"/><rect x="24.0" y="82.0" width="132.2" height="24.0" rx="3" fill="#191921" stroke="#f4efe1" stroke-width="2"/><circle cx="37.0" cy="94.0" r="5.0" fill="#5ee08a" stroke="#f4efe1" stroke-width="1.5"/><text x="48.0" y="98.0" fill="#f4efe1" style="font-family:ui-monospace,'SF Mono','Cascadia Code','DejaVu Sans Mono',Menlo,Consolas,monospace;font-size:11.5px;font-weight:800">11 OPERATIONAL</text><rect x="172.2" y="86.0" width="103.0" height="24.0" rx="3" fill="#f4efe1"/><rect x="168.2" y="82.0" width="103.0" height="24.0" rx="3" fill="#191921" stroke="#f4efe1" stroke-width="2"/><circle cx="181.2" cy="94.0" r="5.0" fill="#ff6b6b" stroke="#f4efe1" stroke-width="1.5"/><text x="192.2" y="98.0" fill="#f4efe1" style="font-family:ui-monospace,'SF Mono','Cascadia Code','DejaVu Sans Mono',Menlo,Consolas,monospace;font-size:11.5px;font-weight:800">0 DEGRADED</text><rect x="287.2" y="86.0" width="73.8" height="24.0" rx="3" fill="#f4efe1"/><rect x="283.2" y="82.0" width="73.8" height="24.0" rx="3" fill="#191921" stroke="#f4efe1" stroke-width="2"/><circle cx="296.2" cy="94.0" r="5.0" fill="#6f6c60" stroke="#f4efe1" stroke-width="1.5"/><text x="307.2" y="98.0" fill="#f4efe1" style="font-family:ui-monospace,'SF Mono','Cascadia Code','DejaVu Sans Mono',Menlo,Consolas,monospace;font-size:11.5px;font-weight:800">1 IDLE</text><rect x="20.0" y="109.0" width="810.0" height="25.0" rx="3" fill="#f4efe1" opacity="0.04"/><rect x="28.0" y="113.0" width="13.0" height="13.0" rx="2" fill="#5ee08a" stroke="#f4efe1" stroke-width="1.5"/><circle cx="52.0" cy="120.0" r="4.0" fill="#f1e05a" stroke="#f4efe1" stroke-width="1.3"/><text x="64.0" y="124.0" fill="#f4efe1" style="font-family:ui-monospace,'SF Mono','Cascadia Code','DejaVu Sans Mono',Menlo,Consolas,monospace;font-size:12.5px;font-weight:700">agent-rules-audit</text><text x="300.0" y="124.0" fill="#6f6c60" style="font-family:ui-monospace,'SF Mono','Cascadia Code','DejaVu Sans Mono',Menlo,Consolas,monospace;font-size:11px;font-weight:800">—</text><text x="390.0" y="124.0" fill="#b3ae9d" style="font-family:ui-monospace,'SF Mono','Cascadia Code','DejaVu Sans Mono',Menlo,Consolas,monospace;font-size:10.5px;font-weight:600">updated 1d</text><text x="690.0" y="124.0" fill="#6f6c60" text-anchor="end" style="font-family:ui-monospace,'SF Mono','Cascadia Code','DejaVu Sans Mono',Menlo,Consolas,monospace;font-size:9.5px;font-weight:700">CI</text><g stroke="#f4efe1" stroke-width="1"><rect x="700.0" y="114.0" width="7" height="13" rx="1" fill="#2b2b33"/><rect x="710.0" y="114.0" width="7" height="13" rx="1" fill="#2b2b33"/><rect x="720.0" y="114.0" width="7" height="13" rx="1" fill="#2b2b33"/><rect x="730.0" y="114.0" width="7" height="13" rx="1" fill="#2b2b33"/><rect x="740.0" y="114.0" width="7" height="13" rx="1" fill="#5ee08a"/><rect x="750.0" y="114.0" width="7" height="13" rx="1" fill="#5ee08a"/><rect x="760.0" y="114.0" width="7" height="13" rx="1" fill="#5ee08a"/><rect x="770.0" y="114.0" width="7" height="13" rx="1" fill="#5ee08a"/><rect x="780.0" y="114.0" width="7" height="13" rx="1" fill="#5ee08a"/><rect x="790.0" y="114.0" width="7" height="13" rx="1" fill="#5ee08a"/><rect x="800.0" y="114.0" width="7" height="13" rx="1" fill="#5ee08a"/><rect x="810.0" y="114.0" width="7" height="13" rx="1" fill="#5ee08a"/></g><rect x="28.0" y="140.0" width="13.0" height="13.0" rx="2" fill="#5ee08a" stroke="#f4efe1" stroke-width="1.5"/><circle cx="52.0" cy="147.0" r="4.0" fill="#dea584" stroke="#f4efe1" stroke-width="1.3"/><text x="64.0" y="151.0" fill="#f4efe1" style="font-family:ui-monospace,'SF Mono','Cascadia Code','DejaVu Sans Mono',Menlo,Consolas,monospace;font-size:12.5px;font-weight:700">mcp-sentinel</text><text x="300.0" y="151.0" fill="#6f6c60" style="font-family:ui-monospace,'SF Mono','Cascadia Code','DejaVu Sans Mono',Menlo,Consolas,monospace;font-size:11px;font-weight:800">—</text><text x="390.0" y="151.0" fill="#b3ae9d" style="font-family:ui-monospace,'SF Mono','Cascadia Code','DejaVu Sans Mono',Menlo,Consolas,monospace;font-size:10.5px;font-weight:600">updated 1d</text><text x="690.0" y="151.0" fill="#6f6c60" text-anchor="end" style="font-family:ui-monospace,'SF Mono','Cascadia Code','DejaVu Sans Mono',Menlo,Consolas,monospace;font-size:9.5px;font-weight:700">CI</text><g stroke="#f4efe1" stroke-width="1"><rect x="700.0" y="141.0" width="7" height="13" rx="1" fill="#2b2b33"/><rect x="710.0" y="141.0" width="7" height="13" rx="1" fill="#2b2b33"/><rect x="720.0" y="141.0" width="7" height="13" rx="1" fill="#2b2b33"/><rect x="730.0" y="141.0" width="7" height="13" rx="1" fill="#2b2b33"/><rect x="740.0" y="141.0" width="7" height="13" rx="1" fill="#2b2b33"/><rect x="750.0" y="141.0" width="7" height="13" rx="1" fill="#2b2b33"/><rect x="760.0" y="141.0" width="7" height="13" rx="1" fill="#5ee08a"/><rect x="770.0" y="141.0" width="7" height="13" rx="1" fill="#5ee08a"/><rect x="780.0" y="141.0" width="7" height="13" rx="1" fill="#ff6b6b"/><rect x="790.0" y="141.0" width="7" height="13" rx="1" fill="#5ee08a"/><rect x="800.0" y="141.0" width="7" height="13" rx="1" fill="#5ee08a"/><rect x="810.0" y="141.0" width="7" height="13" rx="1" fill="#5ee08a"/></g><rect x="20.0" y="163.0" width="810.0" height="25.0" rx="3" fill="#f4efe1" opacity="0.04"/><rect x="28.0" y="167.0" width="13.0" height="13.0" rx="2" fill="#5ee08a" stroke="#f4efe1" stroke-width="1.5"/><circle cx="52.0" cy="174.0" r="4.0" fill="#dea584" stroke="#f4efe1" stroke-width="1.3"/><text x="64.0" y="178.0" fill="#f4efe1" style="font-family:ui-monospace,'SF Mono','Cascadia Code','DejaVu Sans Mono',Menlo,Consolas,monospace;font-size:12.5px;font-weight:700">toolcage</text><text x="300.0" y="178.0" fill="#ff2e88" style="font-family:ui-monospace,'SF Mono','Cascadia Code','DejaVu Sans Mono',Menlo,Consolas,monospace;font-size:11px;font-weight:800">v0.1.0</text><text x="390.0" y="178.0" fill="#b3ae9d" style="font-family:ui-monospace,'SF Mono','Cascadia Code','DejaVu Sans Mono',Menlo,Consolas,monospace;font-size:10.5px;font-weight:600">updated 21h</text><text x="690.0" y="178.0" fill="#6f6c60" text-anchor="end" style="font-family:ui-monospace,'SF Mono','Cascadia Code','DejaVu Sans Mono',Menlo,Consolas,monospace;font-size:9.5px;font-weight:700">CI</text><g stroke="#f4efe1" stroke-width="1"><rect x="700.0" y="168.0" width="7" height="13" rx="1" fill="#2b2b33"/><rect x="710.0" y="168.0" width="7" height="13" rx="1" fill="#2b2b33"/><rect x="720.0" y="168.0" width="7" height="13" rx="1" fill="#2b2b33"/><rect x="730.0" y="168.0" width="7" height="13" rx="1" fill="#2b2b33"/><rect x="740.0" y="168.0" width="7" height="13" rx="1" fill="#2b2b33"/><rect x="750.0" y="168.0" width="7" height="13" rx="1" fill="#ff6b6b"/><rect x="760.0" y="168.0" width="7" height="13" rx="1" fill="#5ee08a"/><rect x="770.0" y="168.0" width="7" height="13" rx="1" fill="#ff6b6b"/><rect x="780.0" y="168.0" width="7" height="13" rx="1" fill="#5ee08a"/><rect x="790.0" y="168.0" width="7" height="13" rx="1" fill="#5ee08a"/><rect x="800.0" y="168.0" width="7" height="13" rx="1" fill="#5ee08a"/><rect x="810.0" y="168.0" width="7" height="13" rx="1" fill="#5ee08a"/></g><rect x="28.0" y="194.0" width="13.0" height="13.0" rx="2" fill="#5ee08a" stroke="#f4efe1" stroke-width="1.5"/><circle cx="52.0" cy="201.0" r="4.0" fill="#00ADD8" stroke="#f4efe1" stroke-width="1.3"/><text x="64.0" y="205.0" fill="#f4efe1" style="font-family:ui-monospace,'SF Mono','Cascadia Code','DejaVu Sans Mono',Menlo,Consolas,monospace;font-size:12.5px;font-weight:700">agent-flightbox</text><text x="300.0" y="205.0" fill="#ff2e88" style="font-family:ui-monospace,'SF Mono','Cascadia Code','DejaVu Sans Mono',Menlo,Consolas,monospace;font-size:11px;font-weight:800">v0.1.0</text><text x="390.0" y="205.0" fill="#b3ae9d" style="font-family:ui-monospace,'SF Mono','Cascadia Code','DejaVu Sans Mono',Menlo,Consolas,monospace;font-size:10.5px;font-weight:600">updated 1d</text><text x="690.0" y="205.0" fill="#6f6c60" text-anchor="end" style="font-family:ui-monospace,'SF Mono','Cascadia Code','DejaVu Sans Mono',Menlo,Consolas,monospace;font-size:9.5px;font-weight:700">CI</text><g stroke="#f4efe1" stroke-width="1"><rect x="700.0" y="195.0" width="7" height="13" rx="1" fill="#2b2b33"/><rect x="710.0" y="195.0" width="7" height="13" rx="1" fill="#2b2b33"/><rect x="720.0" y="195.0" width="7" height="13" rx="1" fill="#2b2b33"/><rect x="730.0" y="195.0" width="7" height="13" rx="1" fill="#2b2b33"/><rect x="740.0" y="195.0" width="7" height="13" rx="1" fill="#2b2b33"/><rect x="750.0" y="195.0" width="7" height="13" rx="1" fill="#2b2b33"/><rect x="760.0" y="195.0" width="7" height="13" rx="1" fill="#2b2b33"/><rect x="770.0" y="195.0" width="7" height="13" rx="1" fill="#ff6b6b"/><rect x="780.0" y="195.0" width="7" height="13" rx="1" fill="#5ee08a"/><rect x="790.0" y="195.0" width="7" height="13" rx="1" fill="#5ee08a"/><rect x="800.0" y="195.0" width="7" height="13" rx="1" fill="#5ee08a"/><rect x="810.0" y="195.0" width="7" height="13" rx="1" fill="#5ee08a"/></g><rect x="20.0" y="217.0" width="810.0" height="25.0" rx="3" fill="#f4efe1" opacity="0.04"/><rect x="28.0" y="221.0" width="13.0" height="13.0" rx="2" fill="#5ee08a" stroke="#f4efe1" stroke-width="1.5"/><circle cx="52.0" cy="228.0" r="4.0" fill="#00ADD8" stroke="#f4efe1" stroke-width="1.3"/><text x="64.0" y="232.0" fill="#f4efe1" style="font-family:ui-monospace,'SF Mono','Cascadia Code','DejaVu Sans Mono',Menlo,Consolas,monospace;font-size:12.5px;font-weight:700">mcp-gateway-lite</text><text x="300.0" y="232.0" fill="#ff2e88" style="font-family:ui-monospace,'SF Mono','Cascadia Code','DejaVu Sans Mono',Menlo,Consolas,monospace;font-size:11px;font-weight:800">v0.4.0</text><text x="390.0" y="232.0" fill="#b3ae9d" style="font-family:ui-monospace,'SF Mono','Cascadia Code','DejaVu Sans Mono',Menlo,Consolas,monospace;font-size:10.5px;font-weight:600">updated 1d</text><text x="690.0" y="232.0" fill="#6f6c60" text-anchor="end" style="font-family:ui-monospace,'SF Mono','Cascadia Code','DejaVu Sans Mono',Menlo,Consolas,monospace;font-size:9.5px;font-weight:700">CI</text><g stroke="#f4efe1" stroke-width="1"><rect x="700.0" y="222.0" width="7" height="13" rx="1" fill="#5ee08a"/><rect x="710.0" y="222.0" width="7" height="13" rx="1" fill="#5ee08a"/><rect x="720.0" y="222.0" width="7" height="13" rx="1" fill="#ff6b6b"/><rect x="730.0" y="222.0" width="7" height="13" rx="1" fill="#5ee08a"/><rect x="740.0" y="222.0" width="7" height="13" rx="1" fill="#ff6b6b"/><rect x="750.0" y="222.0" width="7" height="13" rx="1" fill="#ff6b6b"/><rect x="760.0" y="222.0" width="7" height="13" rx="1" fill="#5ee08a"/><rect x="770.0" y="222.0" width="7" height="13" rx="1" fill="#5ee08a"/><rect x="780.0" y="222.0" width="7" height="13" rx="1" fill="#5ee08a"/><rect x="790.0" y="222.0" width="7" height="13" rx="1" fill="#5ee08a"/><rect x="800.0" y="222.0" width="7" height="13" rx="1" fill="#5ee08a"/><rect x="810.0" y="222.0" width="7" height="13" rx="1" fill="#5ee08a"/></g><rect x="28.0" y="248.0" width="13.0" height="13.0" rx="2" fill="#5ee08a" stroke="#f4efe1" stroke-width="1.5"/><circle cx="52.0" cy="255.0" r="4.0" fill="#00ADD8" stroke="#f4efe1" stroke-width="1.3"/><text x="64.0" y="259.0" fill="#f4efe1" style="font-family:ui-monospace,'SF Mono','Cascadia Code','DejaVu Sans Mono',Menlo,Consolas,monospace;font-size:12.5px;font-weight:700">modelgate</text><text x="300.0" y="259.0" fill="#6f6c60" style="font-family:ui-monospace,'SF Mono','Cascadia Code','DejaVu Sans Mono',Menlo,Consolas,monospace;font-size:11px;font-weight:800">—</text><text x="390.0" y="259.0" fill="#b3ae9d" style="font-family:ui-monospace,'SF Mono','Cascadia Code','DejaVu Sans Mono',Menlo,Consolas,monospace;font-size:10.5px;font-weight:600">updated 1d</text><text x="690.0" y="259.0" fill="#6f6c60" text-anchor="end" style="font-family:ui-monospace,'SF Mono','Cascadia Code','DejaVu Sans Mono',Menlo,Consolas,monospace;font-size:9.5px;font-weight:700">CI</text><g stroke="#f4efe1" stroke-width="1"><rect x="700.0" y="249.0" width="7" height="13" rx="1" fill="#2b2b33"/><rect x="710.0" y="249.0" width="7" height="13" rx="1" fill="#2b2b33"/><rect x="720.0" y="249.0" width="7" height="13" rx="1" fill="#2b2b33"/><rect x="730.0" y="249.0" width="7" height="13" rx="1" fill="#2b2b33"/><rect x="740.0" y="249.0" width="7" height="13" rx="1" fill="#2b2b33"/><rect x="750.0" y="249.0" width="7" height="13" rx="1" fill="#2b2b33"/><rect x="760.0" y="249.0" width="7" height="13" rx="1" fill="#2b2b33"/><rect x="770.0" y="249.0" width="7" height="13" rx="1" fill="#5ee08a"/><rect x="780.0" y="249.0" width="7" height="13" rx="1" fill="#ff6b6b"/><rect x="790.0" y="249.0" width="7" height="13" rx="1" fill="#5ee08a"/><rect x="800.0" y="249.0" width="7" height="13" rx="1" fill="#5ee08a"/><rect x="810.0" y="249.0" width="7" height="13" rx="1" fill="#5ee08a"/></g><rect x="20.0" y="271.0" width="810.0" height="25.0" rx="3" fill="#f4efe1" opacity="0.04"/><rect x="28.0" y="275.0" width="13.0" height="13.0" rx="2" fill="#5ee08a" stroke="#f4efe1" stroke-width="1.5"/><circle cx="52.0" cy="282.0" r="4.0" fill="#00ADD8" stroke="#f4efe1" stroke-width="1.3"/><text x="64.0" y="286.0" fill="#f4efe1" style="font-family:ui-monospace,'SF Mono','Cascadia Code','DejaVu Sans Mono',Menlo,Consolas,monospace;font-size:12.5px;font-weight:700">localmodel-fit</text><text x="300.0" y="286.0" fill="#ff2e88" style="font-family:ui-monospace,'SF Mono','Cascadia Code','DejaVu Sans Mono',Menlo,Consolas,monospace;font-size:11px;font-weight:800">v0.1.0</text><text x="390.0" y="286.0" fill="#b3ae9d" style="font-family:ui-monospace,'SF Mono','Cascadia Code','DejaVu Sans Mono',Menlo,Consolas,monospace;font-size:10.5px;font-weight:600">updated 21h</text><text x="690.0" y="286.0" fill="#6f6c60" text-anchor="end" style="font-family:ui-monospace,'SF Mono','Cascadia Code','DejaVu Sans Mono',Menlo,Consolas,monospace;font-size:9.5px;font-weight:700">CI</text><g stroke="#f4efe1" stroke-width="1"><rect x="700.0" y="276.0" width="7" height="13" rx="1" fill="#2b2b33"/><rect x="710.0" y="276.0" width="7" height="13" rx="1" fill="#2b2b33"/><rect x="720.0" y="276.0" width="7" height="13" rx="1" fill="#2b2b33"/><rect x="730.0" y="276.0" width="7" height="13" rx="1" fill="#2b2b33"/><rect x="740.0" y="276.0" width="7" height="13" rx="1" fill="#2b2b33"/><rect x="750.0" y="276.0" width="7" height="13" rx="1" fill="#2b2b33"/><rect x="760.0" y="276.0" width="7" height="13" rx="1" fill="#5ee08a"/><rect x="770.0" y="276.0" width="7" height="13" rx="1" fill="#5ee08a"/><rect x="780.0" y="276.0" width="7" height="13" rx="1" fill="#5ee08a"/><rect x="790.0" y="276.0" width="7" height="13" rx="1" fill="#5ee08a"/><rect x="800.0" y="276.0" width="7" height="13" rx="1" fill="#5ee08a"/><rect x="810.0" y="276.0" width="7" height="13" rx="1" fill="#5ee08a"/></g><rect x="28.0" y="302.0" width="13.0" height="13.0" rx="2" fill="#5ee08a" stroke="#f4efe1" stroke-width="1.5"/><circle cx="52.0" cy="309.0" r="4.0" fill="#f1e05a" stroke="#f4efe1" stroke-width="1.3"/><text x="64.0" y="313.0" fill="#f4efe1" style="font-family:ui-monospace,'SF Mono','Cascadia Code','DejaVu Sans Mono',Menlo,Consolas,monospace;font-size:12.5px;font-weight:700">trace2eval</text><text x="300.0" y="313.0" fill="#6f6c60" style="font-family:ui-monospace,'SF Mono','Cascadia Code','DejaVu Sans Mono',Menlo,Consolas,monospace;font-size:11px;font-weight:800">—</text><text x="390.0" y="313.0" fill="#b3ae9d" style="font-family:ui-monospace,'SF Mono','Cascadia Code','DejaVu Sans Mono',Menlo,Consolas,monospace;font-size:10.5px;font-weight:600">updated 1d</text><text x="690.0" y="313.0" fill="#6f6c60" text-anchor="end" style="font-family:ui-monospace,'SF Mono','Cascadia Code','DejaVu Sans Mono',Menlo,Consolas,monospace;font-size:9.5px;font-weight:700">CI</text><g stroke="#f4efe1" stroke-width="1"><rect x="700.0" y="303.0" width="7" height="13" rx="1" fill="#2b2b33"/><rect x="710.0" y="303.0" width="7" height="13" rx="1" fill="#2b2b33"/><rect x="720.0" y="303.0" width="7" height="13" rx="1" fill="#2b2b33"/><rect x="730.0" y="303.0" width="7" height="13" rx="1" fill="#2b2b33"/><rect x="740.0" y="303.0" width="7" height="13" rx="1" fill="#2b2b33"/><rect x="750.0" y="303.0" width="7" height="13" rx="1" fill="#2b2b33"/><rect x="760.0" y="303.0" width="7" height="13" rx="1" fill="#2b2b33"/><rect x="770.0" y="303.0" width="7" height="13" rx="1" fill="#2b2b33"/><rect x="780.0" y="303.0" width="7" height="13" rx="1" fill="#5ee08a"/><rect x="790.0" y="303.0" width="7" height="13" rx="1" fill="#5ee08a"/><rect x="800.0" y="303.0" width="7" height="13" rx="1" fill="#5ee08a"/><rect x="810.0" y="303.0" width="7" height="13" rx="1" fill="#5ee08a"/></g><rect x="20.0" y="325.0" width="810.0" height="25.0" rx="3" fill="#f4efe1" opacity="0.04"/><rect x="28.0" y="329.0" width="13.0" height="13.0" rx="2" fill="#5ee08a" stroke="#f4efe1" stroke-width="1.5"/><circle cx="52.0" cy="336.0" r="4.0" fill="#701516" stroke="#f4efe1" stroke-width="1.3"/><text x="64.0" y="340.0" fill="#f4efe1" style="font-family:ui-monospace,'SF Mono','Cascadia Code','DejaVu Sans Mono',Menlo,Consolas,monospace;font-size:12.5px;font-weight:700">ml-kem-rb</text><text x="300.0" y="340.0" fill="#6f6c60" style="font-family:ui-monospace,'SF Mono','Cascadia Code','DejaVu Sans Mono',Menlo,Consolas,monospace;font-size:11px;font-weight:800">—</text><text x="390.0" y="340.0" fill="#b3ae9d" style="font-family:ui-monospace,'SF Mono','Cascadia Code','DejaVu Sans Mono',Menlo,Consolas,monospace;font-size:10.5px;font-weight:600">updated 1d</text><text x="690.0" y="340.0" fill="#6f6c60" text-anchor="end" style="font-family:ui-monospace,'SF Mono','Cascadia Code','DejaVu Sans Mono',Menlo,Consolas,monospace;font-size:9.5px;font-weight:700">CI</text><g stroke="#f4efe1" stroke-width="1"><rect x="700.0" y="330.0" width="7" height="13" rx="1" fill="#2b2b33"/><rect x="710.0" y="330.0" width="7" height="13" rx="1" fill="#2b2b33"/><rect x="720.0" y="330.0" width="7" height="13" rx="1" fill="#2b2b33"/><rect x="730.0" y="330.0" width="7" height="13" rx="1" fill="#2b2b33"/><rect x="740.0" y="330.0" width="7" height="13" rx="1" fill="#2b2b33"/><rect x="750.0" y="330.0" width="7" height="13" rx="1" fill="#2b2b33"/><rect x="760.0" y="330.0" width="7" height="13" rx="1" fill="#ffd23f"/><rect x="770.0" y="330.0" width="7" height="13" rx="1" fill="#5ee08a"/><rect x="780.0" y="330.0" width="7" height="13" rx="1" fill="#5ee08a"/><rect x="790.0" y="330.0" width="7" height="13" rx="1" fill="#ff6b6b"/><rect x="800.0" y="330.0" width="7" height="13" rx="1" fill="#5ee08a"/><rect x="810.0" y="330.0" width="7" height="13" rx="1" fill="#5ee08a"/></g><rect x="28.0" y="356.0" width="13.0" height="13.0" rx="2" fill="#5ee08a" stroke="#f4efe1" stroke-width="1.5"/><circle cx="52.0" cy="363.0" r="4.0" fill="#701516" stroke="#f4efe1" stroke-width="1.3"/><text x="64.0" y="367.0" fill="#f4efe1" style="font-family:ui-monospace,'SF Mono','Cascadia Code','DejaVu Sans Mono',Menlo,Consolas,monospace;font-size:12.5px;font-weight:700">idempotent-rack</text><text x="300.0" y="367.0" fill="#ff2e88" style="font-family:ui-monospace,'SF Mono','Cascadia Code','DejaVu Sans Mono',Menlo,Consolas,monospace;font-size:11px;font-weight:800">v0.1.0</text><text x="390.0" y="367.0" fill="#b3ae9d" style="font-family:ui-monospace,'SF Mono','Cascadia Code','DejaVu Sans Mono',Menlo,Consolas,monospace;font-size:10.5px;font-weight:600">updated 1h</text><text x="690.0" y="367.0" fill="#6f6c60" text-anchor="end" style="font-family:ui-monospace,'SF Mono','Cascadia Code','DejaVu Sans Mono',Menlo,Consolas,monospace;font-size:9.5px;font-weight:700">CI</text><g stroke="#f4efe1" stroke-width="1"><rect x="700.0" y="357.0" width="7" height="13" rx="1" fill="#2b2b33"/><rect x="710.0" y="357.0" width="7" height="13" rx="1" fill="#2b2b33"/><rect x="720.0" y="357.0" width="7" height="13" rx="1" fill="#2b2b33"/><rect x="730.0" y="357.0" width="7" height="13" rx="1" fill="#2b2b33"/><rect x="740.0" y="357.0" width="7" height="13" rx="1" fill="#5ee08a"/><rect x="750.0" y="357.0" width="7" height="13" rx="1" fill="#5ee08a"/><rect x="760.0" y="357.0" width="7" height="13" rx="1" fill="#5ee08a"/><rect x="770.0" y="357.0" width="7" height="13" rx="1" fill="#5ee08a"/><rect x="780.0" y="357.0" width="7" height="13" rx="1" fill="#5ee08a"/><rect x="790.0" y="357.0" width="7" height="13" rx="1" fill="#5ee08a"/><rect x="800.0" y="357.0" width="7" height="13" rx="1" fill="#ff6b6b"/><rect x="810.0" y="357.0" width="7" height="13" rx="1" fill="#5ee08a"/></g><rect x="20.0" y="379.0" width="810.0" height="25.0" rx="3" fill="#f4efe1" opacity="0.04"/><rect x="28.0" y="383.0" width="13.0" height="13.0" rx="2" fill="#5ee08a" stroke="#f4efe1" stroke-width="1.5"/><circle cx="52.0" cy="390.0" r="4.0" fill="#701516" stroke="#f4efe1" stroke-width="1.3"/><text x="64.0" y="394.0" fill="#f4efe1" style="font-family:ui-monospace,'SF Mono','Cascadia Code','DejaVu Sans Mono',Menlo,Consolas,monospace;font-size:12.5px;font-weight:700">acts-as-mcp</text><text x="300.0" y="394.0" fill="#6f6c60" style="font-family:ui-monospace,'SF Mono','Cascadia Code','DejaVu Sans Mono',Menlo,Consolas,monospace;font-size:11px;font-weight:800">—</text><text x="390.0" y="394.0" fill="#b3ae9d" style="font-family:ui-monospace,'SF Mono','Cascadia Code','DejaVu Sans Mono',Menlo,Consolas,monospace;font-size:10.5px;font-weight:600">updated 1d</text><text x="690.0" y="394.0" fill="#6f6c60" text-anchor="end" style="font-family:ui-monospace,'SF Mono','Cascadia Code','DejaVu Sans Mono',Menlo,Consolas,monospace;font-size:9.5px;font-weight:700">CI</text><g stroke="#f4efe1" stroke-width="1"><rect x="700.0" y="384.0" width="7" height="13" rx="1" fill="#2b2b33"/><rect x="710.0" y="384.0" width="7" height="13" rx="1" fill="#2b2b33"/><rect x="720.0" y="384.0" width="7" height="13" rx="1" fill="#2b2b33"/><rect x="730.0" y="384.0" width="7" height="13" rx="1" fill="#2b2b33"/><rect x="740.0" y="384.0" width="7" height="13" rx="1" fill="#2b2b33"/><rect x="750.0" y="384.0" width="7" height="13" rx="1" fill="#2b2b33"/><rect x="760.0" y="384.0" width="7" height="13" rx="1" fill="#2b2b33"/><rect x="770.0" y="384.0" width="7" height="13" rx="1" fill="#2b2b33"/><rect x="780.0" y="384.0" width="7" height="13" rx="1" fill="#2b2b33"/><rect x="790.0" y="384.0" width="7" height="13" rx="1" fill="#5ee08a"/><rect x="800.0" y="384.0" width="7" height="13" rx="1" fill="#5ee08a"/><rect x="810.0" y="384.0" width="7" height="13" rx="1" fill="#5ee08a"/></g><rect x="28.0" y="410.0" width="13.0" height="13.0" rx="2" fill="#6f6c60" stroke="#f4efe1" stroke-width="1.5"/><circle cx="52.0" cy="417.0" r="4.0" fill="#701516" stroke="#f4efe1" stroke-width="1.3"/><text x="64.0" y="421.0" fill="#f4efe1" style="font-family:ui-monospace,'SF Mono','Cascadia Code','DejaVu Sans Mono',Menlo,Consolas,monospace;font-size:12.5px;font-weight:700">gemfile-lock-audit</text><text x="300.0" y="421.0" fill="#6f6c60" style="font-family:ui-monospace,'SF Mono','Cascadia Code','DejaVu Sans Mono',Menlo,Consolas,monospace;font-size:11px;font-weight:800">—</text><text x="390.0" y="421.0" fill="#b3ae9d" style="font-family:ui-monospace,'SF Mono','Cascadia Code','DejaVu Sans Mono',Menlo,Consolas,monospace;font-size:10.5px;font-weight:600">updated 8h</text><text x="690.0" y="421.0" fill="#6f6c60" text-anchor="end" style="font-family:ui-monospace,'SF Mono','Cascadia Code','DejaVu Sans Mono',Menlo,Consolas,monospace;font-size:9.5px;font-weight:700">CI</text><g stroke="#f4efe1" stroke-width="1"><rect x="700.0" y="411.0" width="7" height="13" rx="1" fill="#2b2b33"/><rect x="710.0" y="411.0" width="7" height="13" rx="1" fill="#2b2b33"/><rect x="720.0" y="411.0" width="7" height="13" rx="1" fill="#2b2b33"/><rect x="730.0" y="411.0" width="7" height="13" rx="1" fill="#2b2b33"/><rect x="740.0" y="411.0" width="7" height="13" rx="1" fill="#2b2b33"/><rect x="750.0" y="411.0" width="7" height="13" rx="1" fill="#2b2b33"/><rect x="760.0" y="411.0" width="7" height="13" rx="1" fill="#2b2b33"/><rect x="770.0" y="411.0" width="7" height="13" rx="1" fill="#2b2b33"/><rect x="780.0" y="411.0" width="7" height="13" rx="1" fill="#2b2b33"/><rect x="790.0" y="411.0" width="7" height="13" rx="1" fill="#2b2b33"/><rect x="800.0" y="411.0" width="7" height="13" rx="1" fill="#2b2b33"/><rect x="810.0" y="411.0" width="7" height="13" rx="1" fill="#2b2b33"/></g></svg>