<svg xmlns="http://www.w3.org/2000/svg" width="850" height="300" viewBox="0 0 850 300" role="img" font-family="'Arial Black',system-ui,-apple-system,'Segoe UI',Roboto,Helvetica,Arial,sans-serif"><defs><pattern id="dgm" width="19" height="19" patternUnits="userSpaceOnUse"><circle cx="1.6" cy="1.6" r="1.15" fill="#f4efe1" opacity="0.05"/></pattern><radialGradient id="swm" cx="0.5" cy="0.5" r="0.5"><stop offset="0" stop-color="#ff2e88" stop-opacity="0.34"/><stop offset="1" stop-color="#ff2e88" stop-opacity="0"/></radialGradient></defs><rect x="0.0" y="0.0" width="850.0" height="300.0" rx="0" fill="#0d1117"/><rect x="0.0" y="0.0" width="850.0" height="300.0" rx="0" fill="url(#dgm)"/><line x1="822.0" y1="11.0" x2="839.0" y2="11.0" stroke="#ff2e88" stroke-width="3" stroke-linecap="butt"/><line x1="839.0" y1="11.0" x2="839.0" y2="28.0" stroke="#ff2e88" stroke-width="3" stroke-linecap="butt"/><line x1="11.0" y1="289.0" x2="28.0" y2="289.0" stroke="#ff2e88" stroke-width="3" stroke-linecap="butt"/><line x1="11.0" y1="272.0" x2="11.0" y2="289.0" stroke="#ff2e88" stroke-width="3" stroke-linecap="butt"/><rect x="29.0" y="25.0" width="193.4" height="30.0" rx="3" fill="#f4efe1"/><rect x="24.0" y="20.0" width="193.4" height="30.0" rx="3" fill="#c9a2ff" stroke="#f4efe1" stroke-width="2.5"/><text x="37.0" y="40.2" fill="#141109" text-anchor="start" style="font-family:ui-monospace,'SF Mono','Cascadia Code','DejaVu Sans Mono',Menlo,Consolas,monospace;font-size:15px;font-weight:800;letter-spacing:0.5px">05 // BUILD SPRINT</text><text x="24.0" y="72.0" fill="#b3ae9d" text-anchor="start" style="font-family:'Arial Black',system-ui,-apple-system,'Segoe UI',Roboto,Helvetica,Arial,sans-serif;font-size:12px;font-weight:600">12 public flagships shipped in a 5-day burst · 5 version-tagged</text><line x1="40.0" y1="106.0" x2="810.0" y2="106.0" stroke="#f4efe1" stroke-width="3" stroke-linecap="butt"/><text x="232.5" y="100.0" fill="#6f6c60" text-anchor="middle" style="font-family:ui-monospace,'SF Mono','Cascadia Code','DejaVu Sans Mono',Menlo,Consolas,monospace;font-size:9px;font-weight:700">+1d</text><text x="425.0" y="100.0" fill="#6f6c60" text-anchor="middle" style="font-family:ui-monospace,'SF Mono','Cascadia Code','DejaVu Sans Mono',Menlo,Consolas,monospace;font-size:9px;font-weight:700">+3d</text><text x="617.5" y="100.0" fill="#6f6c60" text-anchor="middle" style="font-family:ui-monospace,'SF Mono','Cascadia Code','DejaVu Sans Mono',Menlo,Consolas,monospace;font-size:9px;font-weight:700">+1d</text><line x1="136.2" y1="98.0" x2="136.2" y2="114.0" stroke="#f4efe1" stroke-width="3" stroke-linecap="butt"/><rect x="129.2" y="99.0" width="14.0" height="14.0" rx="1" fill="#c9a2ff" stroke="#f4efe1" stroke-width="2"/><text x="136.2" y="88.0" fill="#f4efe1" text-anchor="middle" style="font-family:ui-monospace,'SF Mono','Cascadia Code','DejaVu Sans Mono',Menlo,Consolas,monospace;font-size:11px;font-weight:800">Jul 16</text><text x="136.2" y="134.0" fill="#c9a2ff" text-anchor="middle" style="font-family:ui-monospace,'SF Mono','Cascadia Code','DejaVu Sans Mono',Menlo,Consolas,monospace;font-size:9.5px;font-weight:800">5 shipped</text><rect x="59.2" y="154.0" width="162.0" height="19.0" rx="3" fill="#f4efe1"/><rect x="55.2" y="150.0" width="162.0" height="19.0" rx="3" fill="#191921" stroke="#f4efe1" stroke-width="1.6"/><circle cx="66.2" cy="159.5" r="3.6" fill="#f1e05a" stroke="#f4efe1" stroke-width="1.2"/><text x="75.2" y="163.0" fill="#f4efe1" text-anchor="start" style="font-family:ui-monospace,'SF Mono','Cascadia Code','DejaVu Sans Mono',Menlo,Consolas,monospace;font-size:9.5px;font-weight:700">agent-rules-aud…</text><rect x="59.2" y="178.0" width="162.0" height="19.0" rx="3" fill="#f4efe1"/><rect x="55.2" y="174.0" width="162.0" height="19.0" rx="3" fill="#191921" stroke="#f4efe1" stroke-width="1.6"/><circle cx="66.2" cy="183.5" r="3.6" fill="#dea584" stroke="#f4efe1" stroke-width="1.2"/><text x="75.2" y="187.0" fill="#f4efe1" text-anchor="start" style="font-family:ui-monospace,'SF Mono','Cascadia Code','DejaVu Sans Mono',Menlo,Consolas,monospace;font-size:9.5px;font-weight:700">mcp-sentinel</text><rect x="59.2" y="202.0" width="162.0" height="19.0" rx="3" fill="#f4efe1"/><rect x="55.2" y="198.0" width="162.0" height="19.0" rx="3" fill="#191921" stroke="#f4efe1" stroke-width="1.6"/><circle cx="66.2" cy="207.5" r="3.6" fill="#f1e05a" stroke="#f4efe1" stroke-width="1.2"/><text x="75.2" y="211.0" fill="#f4efe1" text-anchor="start" style="font-family:ui-monospace,'SF Mono','Cascadia Code','DejaVu Sans Mono',Menlo,Consolas,monospace;font-size:9.5px;font-weight:700">trace2eval</text><rect x="59.2" y="226.0" width="162.0" height="19.0" rx="3" fill="#f4efe1"/><rect x="55.2" y="222.0" width="162.0" height="19.0" rx="3" fill="#191921" stroke="#f4efe1" stroke-width="1.6"/><circle cx="66.2" cy="231.5" r="3.6" fill="#701516" stroke="#f4efe1" stroke-width="1.2"/><text x="75.2" y="235.0" fill="#f4efe1" text-anchor="start" style="font-family:ui-monospace,'SF Mono','Cascadia Code','DejaVu Sans Mono',Menlo,Consolas,monospace;font-size:9.5px;font-weight:700">ml-kem-rb</text><rect x="59.2" y="250.0" width="162.0" height="19.0" rx="3" fill="#f4efe1"/><rect x="55.2" y="246.0" width="162.0" height="19.0" rx="3" fill="#191921" stroke="#f4efe1" stroke-width="1.6"/><circle cx="66.2" cy="255.5" r="3.6" fill="#701516" stroke="#f4efe1" stroke-width="1.2"/><text x="75.2" y="259.0" fill="#f4efe1" text-anchor="start" style="font-family:ui-monospace,'SF Mono','Cascadia Code','DejaVu Sans Mono',Menlo,Consolas,monospace;font-size:9.5px;font-weight:700">gemfile-lock-au…</text><line x1="328.8" y1="98.0" x2="328.8" y2="114.0" stroke="#f4efe1" stroke-width="3" stroke-linecap="butt"/><rect x="321.8" y="99.0" width="14.0" height="14.0" rx="1" fill="#c9a2ff" stroke="#f4efe1" stroke-width="2"/><text x="328.8" y="88.0" fill="#f4efe1" text-anchor="middle" style="font-family:ui-monospace,'SF Mono','Cascadia Code','DejaVu Sans Mono',Menlo,Consolas,monospace;font-size:11px;font-weight:800">Jul 17</text><text x="328.8" y="134.0" fill="#c9a2ff" text-anchor="middle" style="font-family:ui-monospace,'SF Mono','Cascadia Code','DejaVu Sans Mono',Menlo,Consolas,monospace;font-size:9.5px;font-weight:800">4 shipped</text><rect x="251.8" y="154.0" width="162.0" height="19.0" rx="3" fill="#f4efe1"/><rect x="247.8" y="150.0" width="162.0" height="19.0" rx="3" fill="#191921" stroke="#f4efe1" stroke-width="1.6"/><circle cx="258.8" cy="159.5" r="3.6" fill="#dea584" stroke="#f4efe1" stroke-width="1.2"/><text x="267.8" y="163.0" fill="#f4efe1" text-anchor="start" style="font-family:ui-monospace,'SF Mono','Cascadia Code','DejaVu Sans Mono',Menlo,Consolas,monospace;font-size:9.5px;font-weight:700">toolcage</text><circle cx="400.8" cy="159.5" r="3.0" fill="#ff2e88"/><rect x="251.8" y="178.0" width="162.0" height="19.0" rx="3" fill="#f4efe1"/><rect x="247.8" y="174.0" width="162.0" height="19.0" rx="3" fill="#191921" stroke="#f4efe1" stroke-width="1.6"/><circle cx="258.8" cy="183.5" r="3.6" fill="#00ADD8" stroke="#f4efe1" stroke-width="1.2"/><text x="267.8" y="187.0" fill="#f4efe1" text-anchor="start" style="font-family:ui-monospace,'SF Mono','Cascadia Code','DejaVu Sans Mono',Menlo,Consolas,monospace;font-size:9.5px;font-weight:700">mcp-gateway-lite</text><circle cx="400.8" cy="183.5" r="3.0" fill="#ff2e88"/><rect x="251.8" y="202.0" width="162.0" height="19.0" rx="3" fill="#f4efe1"/><rect x="247.8" y="198.0" width="162.0" height="19.0" rx="3" fill="#191921" stroke="#f4efe1" stroke-width="1.6"/><circle cx="258.8" cy="207.5" r="3.6" fill="#00ADD8" stroke="#f4efe1" stroke-width="1.2"/><text x="267.8" y="211.0" fill="#f4efe1" text-anchor="start" style="font-family:ui-monospace,'SF Mono','Cascadia Code','DejaVu Sans Mono',Menlo,Consolas,monospace;font-size:9.5px;font-weight:700">localmodel-fit</text><circle cx="400.8" cy="207.5" r="3.0" fill="#ff2e88"/><rect x="251.8" y="226.0" width="162.0" height="19.0" rx="3" fill="#f4efe1"/><rect x="247.8" y="222.0" width="162.0" height="19.0" rx="3" fill="#191921" stroke="#f4efe1" stroke-width="1.6"/><circle cx="258.8" cy="231.5" r="3.6" fill="#701516" stroke="#f4efe1" stroke-width="1.2"/><text x="267.8" y="235.0" fill="#f4efe1" text-anchor="start" style="font-family:ui-monospace,'SF Mono','Cascadia Code','DejaVu Sans Mono',Menlo,Consolas,monospace;font-size:9.5px;font-weight:700">acts-as-mcp</text><line x1="521.2" y1="98.0" x2="521.2" y2="114.0" stroke="#f4efe1" stroke-width="3" stroke-linecap="butt"/><rect x="514.2" y="99.0" width="14.0" height="14.0" rx="1" fill="#c9a2ff" stroke="#f4efe1" stroke-width="2"/><text x="521.2" y="88.0" fill="#f4efe1" text-anchor="middle" style="font-family:ui-monospace,'SF Mono','Cascadia Code','DejaVu Sans Mono',Menlo,Consolas,monospace;font-size:11px;font-weight:800">Jul 20</text><text x="521.2" y="134.0" fill="#c9a2ff" text-anchor="middle" style="font-family:ui-monospace,'SF Mono','Cascadia Code','DejaVu Sans Mono',Menlo,Consolas,monospace;font-size:9.5px;font-weight:800">2 shipped</text><rect x="444.2" y="154.0" width="162.0" height="19.0" rx="3" fill="#f4efe1"/><rect x="440.2" y="150.0" width="162.0" height="19.0" rx="3" fill="#191921" stroke="#f4efe1" stroke-width="1.6"/><circle cx="451.2" cy="159.5" r="3.6" fill="#00ADD8" stroke="#f4efe1" stroke-width="1.2"/><text x="460.2" y="163.0" fill="#f4efe1" text-anchor="start" style="font-family:ui-monospace,'SF Mono','Cascadia Code','DejaVu Sans Mono',Menlo,Consolas,monospace;font-size:9.5px;font-weight:700">agent-flightbox</text><circle cx="593.2" cy="159.5" r="3.0" fill="#ff2e88"/><rect x="444.2" y="178.0" width="162.0" height="19.0" rx="3" fill="#f4efe1"/><rect x="440.2" y="174.0" width="162.0" height="19.0" rx="3" fill="#191921" stroke="#f4efe1" stroke-width="1.6"/><circle cx="451.2" cy="183.5" r="3.6" fill="#00ADD8" stroke="#f4efe1" stroke-width="1.2"/><text x="460.2" y="187.0" fill="#f4efe1" text-anchor="start" style="font-family:ui-monospace,'SF Mono','Cascadia Code','DejaVu Sans Mono',Menlo,Consolas,monospace;font-size:9.5px;font-weight:700">modelgate</text><line x1="713.8" y1="98.0" x2="713.8" y2="114.0" stroke="#f4efe1" stroke-width="3" stroke-linecap="butt"/><rect x="706.8" y="99.0" width="14.0" height="14.0" rx="1" fill="#c9a2ff" stroke="#f4efe1" stroke-width="2"/><text x="713.8" y="88.0" fill="#f4efe1" text-anchor="middle" style="font-family:ui-monospace,'SF Mono','Cascadia Code','DejaVu Sans Mono',Menlo,Consolas,monospace;font-size:11px;font-weight:800">Jul 21</text><text x="713.8" y="134.0" fill="#c9a2ff" text-anchor="middle" style="font-family:ui-monospace,'SF Mono','Cascadia Code','DejaVu Sans Mono',Menlo,Consolas,monospace;font-size:9.5px;font-weight:800">1 shipped</text><rect x="636.8" y="154.0" width="162.0" height="19.0" rx="3" fill="#f4efe1"/><rect x="632.8" y="150.0" width="162.0" height="19.0" rx="3" fill="#191921" stroke="#f4efe1" stroke-width="1.6"/><circle cx="643.8" cy="159.5" r="3.6" fill="#701516" stroke="#f4efe1" stroke-width="1.2"/><text x="652.8" y="163.0" fill="#f4efe1" text-anchor="start" style="font-family:ui-monospace,'SF Mono','Cascadia Code','DejaVu Sans Mono',Menlo,Consolas,monospace;font-size:9.5px;font-weight:700">idempotent-rack</text><circle cx="785.8" cy="159.5" r="3.0" fill="#ff2e88"/></svg>