<svg xmlns="http://www.w3.org/2000/svg" width="850" height="340" viewBox="0 0 850 340" role="img" font-family="'Arial Black',system-ui,-apple-system,'Segoe UI',Roboto,Helvetica,Arial,sans-serif"><defs><pattern id="dgm" width="19" height="19" patternUnits="userSpaceOnUse"><circle cx="1.6" cy="1.6" r="1.15" fill="#141109" opacity="0.05"/></pattern></defs><rect x="0.0" y="0.0" width="850.0" height="340.0" fill="#fdf6e6"/><rect x="0.0" y="0.0" width="850.0" height="340.0" fill="url(#dgm)"/><line x1="822.0" y1="11.0" x2="839.0" y2="11.0" stroke="#ff1f7a" stroke-width="3"/><line x1="839.0" y1="11.0" x2="839.0" y2="28.0" stroke="#ff1f7a" stroke-width="3"/><line x1="11.0" y1="329.0" x2="28.0" y2="329.0" stroke="#ff1f7a" stroke-width="3"/><line x1="11.0" y1="312.0" x2="11.0" y2="329.0" stroke="#ff1f7a" stroke-width="3"/><rect x="29.0" y="25.0" width="193.4" height="30.0" rx="3" fill="#141109"/><rect x="24.0" y="20.0" width="193.4" height="30.0" rx="3" fill="#b06bff" stroke="#141109" stroke-width="2.5"/><text x="37.0" y="40.2" fill="#141109" style="font-family:ui-monospace,'SF Mono','Cascadia Code','DejaVu Sans Mono',Menlo,Consolas,monospace;font-size:15px;font-weight:800;letter-spacing:0.5px">05 // BUILD SPRINT</text><text x="24.0" y="72.0" fill="#5c574a" style="font-family:'Arial Black',system-ui,-apple-system,'Segoe UI',Roboto,Helvetica,Arial,sans-serif;font-size:12px;font-weight:600">12 public + 1 private = 13 flagships in a 5-day burst · 5 version-tagged</text><line x1="60.0" y1="190.0" x2="810.0" y2="190.0" stroke="#e4dcc6" stroke-width="1.5"/><text x="50.0" y="194.0" fill="#948f7e" text-anchor="end" style="font-family:ui-monospace,'SF Mono','Cascadia Code','DejaVu Sans Mono',Menlo,Consolas,monospace;font-size:9.5px;font-weight:700">0</text><line x1="60.0" y1="158.7" x2="810.0" y2="158.7" stroke="#e4dcc6" stroke-width="1.5"/><text x="50.0" y="162.7" fill="#948f7e" text-anchor="end" style="font-family:ui-monospace,'SF Mono','Cascadia Code','DejaVu Sans Mono',Menlo,Consolas,monospace;font-size:9.5px;font-weight:700">4</text><line x1="60.0" y1="127.3" x2="810.0" y2="127.3" stroke="#e4dcc6" stroke-width="1.5"/><text x="50.0" y="131.3" fill="#948f7e" text-anchor="end" style="font-family:ui-monospace,'SF Mono','Cascadia Code','DejaVu Sans Mono',Menlo,Consolas,monospace;font-size:9.5px;font-weight:700">8</text><line x1="60.0" y1="96.0" x2="810.0" y2="96.0" stroke="#e4dcc6" stroke-width="1.5"/><text x="50.0" y="100.0" fill="#948f7e" text-anchor="end" style="font-family:ui-monospace,'SF Mono','Cascadia Code','DejaVu Sans Mono',Menlo,Consolas,monospace;font-size:9.5px;font-weight:700">12</text><polygon points="60.0,190.0 172.5,190.0 172.5,150.8 360.0,150.8 360.0,119.5 547.5,119.5 547.5,103.8 735.0,103.8 735.0,96.0 810.0,96.0 810.0,190.0 60.0,190.0" fill="#b06bff" fill-opacity="0.18"/><polyline points="60.0,190.0 172.5,190.0 172.5,150.8 360.0,150.8 360.0,119.5 547.5,119.5 547.5,103.8 735.0,103.8 735.0,96.0 810.0,96.0" fill="none" stroke="#141109" stroke-width="3" stroke-linejoin="round"/><circle cx="172.5" cy="150.8" r="6.0" fill="#b06bff" stroke="#141109" stroke-width="2.5"/><rect x="157.5" y="118.8" width="30.0" height="19.0" rx="3" fill="#b06bff" stroke="#141109" stroke-width="2"/><text x="172.5" y="131.8" fill="#141109" text-anchor="middle" style="font-family:ui-monospace,'SF Mono','Cascadia Code','DejaVu Sans Mono',Menlo,Consolas,monospace;font-size:12px;font-weight:800">5</text><text x="172.5" y="206.0" fill="#141109" text-anchor="middle" style="font-family:ui-monospace,'SF Mono','Cascadia Code','DejaVu Sans Mono',Menlo,Consolas,monospace;font-size:10px;font-weight:800">Jul 16</text><text x="172.5" y="219.0" fill="#b06bff" text-anchor="middle" style="font-family:ui-monospace,'SF Mono','Cascadia Code','DejaVu Sans Mono',Menlo,Consolas,monospace;font-size:9px;font-weight:800">+5</text><rect x="97.5" y="230.0" width="150.0" height="16.0" rx="2" fill="#ffffff" stroke="#141109" stroke-width="1.4"/><circle cx="106.5" cy="238.0" r="3.2" fill="#f1e05a" stroke="#141109" stroke-width="1.1"/><text x="114.5" y="241.0" fill="#141109" style="font-family:ui-monospace,'SF Mono','Cascadia Code','DejaVu Sans Mono',Menlo,Consolas,monospace;font-size:9px;font-weight:700">agent-rules-aud…</text><rect x="97.5" y="249.0" width="150.0" height="16.0" rx="2" fill="#ffffff" stroke="#141109" stroke-width="1.4"/><circle cx="106.5" cy="257.0" r="3.2" fill="#dea584" stroke="#141109" stroke-width="1.1"/><text x="114.5" y="260.0" fill="#141109" style="font-family:ui-monospace,'SF Mono','Cascadia Code','DejaVu Sans Mono',Menlo,Consolas,monospace;font-size:9px;font-weight:700">mcp-sentinel</text><rect x="97.5" y="268.0" width="150.0" height="16.0" rx="2" fill="#ffffff" stroke="#141109" stroke-width="1.4"/><circle cx="106.5" cy="276.0" r="3.2" fill="#f1e05a" stroke="#141109" stroke-width="1.1"/><text x="114.5" y="279.0" fill="#141109" style="font-family:ui-monospace,'SF Mono','Cascadia Code','DejaVu Sans Mono',Menlo,Consolas,monospace;font-size:9px;font-weight:700">trace2eval</text><rect x="97.5" y="287.0" width="150.0" height="16.0" rx="2" fill="#ffffff" stroke="#141109" stroke-width="1.4"/><circle cx="106.5" cy="295.0" r="3.2" fill="#701516" stroke="#141109" stroke-width="1.1"/><text x="114.5" y="298.0" fill="#141109" style="font-family:ui-monospace,'SF Mono','Cascadia Code','DejaVu Sans Mono',Menlo,Consolas,monospace;font-size:9px;font-weight:700">ml-kem-rb</text><rect x="97.5" y="306.0" width="150.0" height="16.0" rx="2" fill="#ffffff" stroke="#141109" stroke-width="1.4"/><circle cx="106.5" cy="314.0" r="3.2" fill="#701516" stroke="#141109" stroke-width="1.1"/><text x="114.5" y="317.0" fill="#141109" style="font-family:ui-monospace,'SF Mono','Cascadia Code','DejaVu Sans Mono',Menlo,Consolas,monospace;font-size:9px;font-weight:700">gemfile-lock-au…</text><circle cx="360.0" cy="119.5" r="6.0" fill="#b06bff" stroke="#141109" stroke-width="2.5"/><rect x="345.0" y="87.5" width="30.0" height="19.0" rx="3" fill="#b06bff" stroke="#141109" stroke-width="2"/><text x="360.0" y="100.5" fill="#141109" text-anchor="middle" style="font-family:ui-monospace,'SF Mono','Cascadia Code','DejaVu Sans Mono',Menlo,Consolas,monospace;font-size:12px;font-weight:800">9</text><text x="360.0" y="206.0" fill="#141109" text-anchor="middle" style="font-family:ui-monospace,'SF Mono','Cascadia Code','DejaVu Sans Mono',Menlo,Consolas,monospace;font-size:10px;font-weight:800">Jul 17</text><text x="360.0" y="219.0" fill="#b06bff" text-anchor="middle" style="font-family:ui-monospace,'SF Mono','Cascadia Code','DejaVu Sans Mono',Menlo,Consolas,monospace;font-size:9px;font-weight:800">+4</text><rect x="285.0" y="230.0" width="150.0" height="16.0" rx="2" fill="#ffffff" stroke="#141109" stroke-width="1.4"/><circle cx="294.0" cy="238.0" r="3.2" fill="#dea584" stroke="#141109" stroke-width="1.1"/><text x="302.0" y="241.0" fill="#141109" style="font-family:ui-monospace,'SF Mono','Cascadia Code','DejaVu Sans Mono',Menlo,Consolas,monospace;font-size:9px;font-weight:700">toolcage</text><circle cx="427.0" cy="238.0" r="3.0" fill="#ff1f7a"/><rect x="285.0" y="249.0" width="150.0" height="16.0" rx="2" fill="#ffffff" stroke="#141109" stroke-width="1.4"/><circle cx="294.0" cy="257.0" r="3.2" fill="#00ADD8" stroke="#141109" stroke-width="1.1"/><text x="302.0" y="260.0" fill="#141109" style="font-family:ui-monospace,'SF Mono','Cascadia Code','DejaVu Sans Mono',Menlo,Consolas,monospace;font-size:9px;font-weight:700">mcp-gateway-lite</text><circle cx="427.0" cy="257.0" r="3.0" fill="#ff1f7a"/><rect x="285.0" y="268.0" width="150.0" height="16.0" rx="2" fill="#ffffff" stroke="#141109" stroke-width="1.4"/><circle cx="294.0" cy="276.0" r="3.2" fill="#00ADD8" stroke="#141109" stroke-width="1.1"/><text x="302.0" y="279.0" fill="#141109" style="font-family:ui-monospace,'SF Mono','Cascadia Code','DejaVu Sans Mono',Menlo,Consolas,monospace;font-size:9px;font-weight:700">localmodel-fit</text><circle cx="427.0" cy="276.0" r="3.0" fill="#ff1f7a"/><rect x="285.0" y="287.0" width="150.0" height="16.0" rx="2" fill="#ffffff" stroke="#141109" stroke-width="1.4"/><circle cx="294.0" cy="295.0" r="3.2" fill="#701516" stroke="#141109" stroke-width="1.1"/><text x="302.0" y="298.0" fill="#141109" style="font-family:ui-monospace,'SF Mono','Cascadia Code','DejaVu Sans Mono',Menlo,Consolas,monospace;font-size:9px;font-weight:700">acts-as-mcp</text><circle cx="547.5" cy="103.8" r="6.0" fill="#b06bff" stroke="#141109" stroke-width="2.5"/><rect x="532.5" y="71.8" width="30.0" height="19.0" rx="3" fill="#b06bff" stroke="#141109" stroke-width="2"/><text x="547.5" y="84.8" fill="#141109" text-anchor="middle" style="font-family:ui-monospace,'SF Mono','Cascadia Code','DejaVu Sans Mono',Menlo,Consolas,monospace;font-size:12px;font-weight:800">11</text><text x="547.5" y="206.0" fill="#141109" text-anchor="middle" style="font-family:ui-monospace,'SF Mono','Cascadia Code','DejaVu Sans Mono',Menlo,Consolas,monospace;font-size:10px;font-weight:800">Jul 20</text><text x="547.5" y="219.0" fill="#b06bff" text-anchor="middle" style="font-family:ui-monospace,'SF Mono','Cascadia Code','DejaVu Sans Mono',Menlo,Consolas,monospace;font-size:9px;font-weight:800">+2</text><rect x="472.5" y="230.0" width="150.0" height="16.0" rx="2" fill="#ffffff" stroke="#141109" stroke-width="1.4"/><circle cx="481.5" cy="238.0" r="3.2" fill="#00ADD8" stroke="#141109" stroke-width="1.1"/><text x="489.5" y="241.0" fill="#141109" style="font-family:ui-monospace,'SF Mono','Cascadia Code','DejaVu Sans Mono',Menlo,Consolas,monospace;font-size:9px;font-weight:700">agent-flightbox</text><circle cx="614.5" cy="238.0" r="3.0" fill="#ff1f7a"/><rect x="472.5" y="249.0" width="150.0" height="16.0" rx="2" fill="#ffffff" stroke="#141109" stroke-width="1.4"/><circle cx="481.5" cy="257.0" r="3.2" fill="#00ADD8" stroke="#141109" stroke-width="1.1"/><text x="489.5" y="260.0" fill="#141109" style="font-family:ui-monospace,'SF Mono','Cascadia Code','DejaVu Sans Mono',Menlo,Consolas,monospace;font-size:9px;font-weight:700">modelgate</text><circle cx="735.0" cy="96.0" r="6.0" fill="#b06bff" stroke="#141109" stroke-width="2.5"/><rect x="720.0" y="64.0" width="30.0" height="19.0" rx="3" fill="#b06bff" stroke="#141109" stroke-width="2"/><text x="735.0" y="77.0" fill="#141109" text-anchor="middle" style="font-family:ui-monospace,'SF Mono','Cascadia Code','DejaVu Sans Mono',Menlo,Consolas,monospace;font-size:12px;font-weight:800">12</text><text x="735.0" y="206.0" fill="#141109" text-anchor="middle" style="font-family:ui-monospace,'SF Mono','Cascadia Code','DejaVu Sans Mono',Menlo,Consolas,monospace;font-size:10px;font-weight:800">Jul 21</text><text x="735.0" y="219.0" fill="#b06bff" text-anchor="middle" style="font-family:ui-monospace,'SF Mono','Cascadia Code','DejaVu Sans Mono',Menlo,Consolas,monospace;font-size:9px;font-weight:800">+1</text><rect x="660.0" y="230.0" width="150.0" height="16.0" rx="2" fill="#ffffff" stroke="#141109" stroke-width="1.4"/><circle cx="669.0" cy="238.0" r="3.2" fill="#701516" stroke="#141109" stroke-width="1.1"/><text x="677.0" y="241.0" fill="#141109" style="font-family:ui-monospace,'SF Mono','Cascadia Code','DejaVu Sans Mono',Menlo,Consolas,monospace;font-size:9px;font-weight:700">idempotent-rack</text><circle cx="802.0" cy="238.0" r="3.0" fill="#ff1f7a"/><circle cx="810.0" cy="96.0" r="5.0" fill="#ff1f7a" stroke="#141109" stroke-width="2"/></svg>